<svg version="1.2" xmlns="http://www.w3.org/2000/svg" viewBox="0 0 239 203" width="239" height="203">
	<title>logo-svg</title>
	<style>
		.s0 { fill: #f55a00 } 
	</style>
	<path id="Layer" fill-rule="evenodd" class="s0" d="m161.2 112.2h-70.9v-111.6h61.4v24.4h-34.8v15.7h40.4v24.4h-40.4v22.6h44.3zm-66.6-4.3h62.2v-15.9h-44.2v-31.2h40.3v-15.7h-40.3v-24.4h34.7v-15.8h-52.7z"/>
	<path id="Layer" fill-rule="evenodd" class="s0" d="m140.9 197.6c-5.4-3.1-10.3-7.4-13.8-12.7l-1.3-1.7 20.2-14.6 1.3 2c2.6 4.5 7.3 7.2 12.5 7.2 8.2 0 14.5-5.9 14.5-13.2v-1.2c-1.5 1-3.3 1.8-4.6 2.3-3.4 1.3-7.3 2-10.9 2-10.2 0-19.7-4.3-26.9-11.9-7.1-7.5-11-17.6-11-28.1 0-10.8 3.9-20.9 11.1-28.4q5.4-5.6 12.1-8.6c4.6-2.2 9.7-3.2 14.7-3.2 5.2 0 11.2 1.8 15.5 4.4v-2.8h24.8v74.2c0 21.6-17.7 39.1-39.3 39.1-6.6 0-13.1-1.7-18.9-4.8zm-9-13.4c3 3.8 6.9 7.2 11.2 9.6 5 2.9 10.8 4.3 16.7 4.3 19.3 0 35-15.7 35-34.8v-69.9h-16.1v8.4c-5.4-7.9-14.9-9.9-19.9-9.9-8.8 0-17.3 3.6-23.6 10.3-6.4 6.8-10 15.9-10 25.5 0 19.6 15 35.7 33.6 35.7 6.5 0 14.5-1.6 19.9-11.1v12.3c0 9.8-8.4 17.5-18.9 17.5-5.9 0-11.4-2.7-15-7.3zm15.4-42.3c-3.6-3.6-5.6-8.7-5.6-14.1 0-5.5 2-10.6 5.6-14.3 3.6-3.6 8.4-5.5 13.6-5.5 5.2 0 9.9 1.9 13.4 5.6 3.4 3.6 5.3 8.5 5.3 14.2 0 11.3-7.9 19.7-18.7 19.7-5.2 0-10-2-13.6-5.6zm3.1-25.2c-2.8 2.7-4.4 6.7-4.4 11.1 0 4.3 1.6 8.2 4.4 11 2.7 2.8 6.4 4.4 10.5 4.4 4 0 7.6-1.6 10.2-4.4 2.7-2.7 4.2-6.7 4.2-11 0-4.5-1.5-8.4-4.2-11.3-2.6-2.7-6.2-4.2-10.2-4.2-4.1 0-7.8 1.5-10.5 4.4z"/>
	<path id="Layer" fill-rule="evenodd" class="s0" d="m34.6 43.5l-8.1 8.1 8.1 8.1-13.1 13.2-8.1-8.1-13.2-13.2 13.2-13.2 8.1-8.1zm-5.5 16.1l-5.3-5.3-2.8-2.7 2.8-2.8 5.3-5.3-7.6-7.8-15.9 15.9 15.9 15.8zm47-58.5h19.5l-33.2 100.8h-19.6zm-16.4 96.9l30.6-93h-11.5l-30.6 93zm158-67.8l21.1 21.3-21.1 21.3-13.3-13.2 8.1-8.1-8.1-8zm0 37.1l15.7-15.8-15.7-15.9-7.8 7.8 5.4 5.3 2.7 2.8-2.7 2.7-5.4 5.3z"/>
</svg>