<svg viewBox="0 0 72 58" fill="none" xmlns="http://www.w3.org/2000/svg">
<path fill-rule="evenodd" clip-rule="evenodd" d="M14.955 0C10.845 0 7.806 3.597 7.944 7.494C8.073 11.244 7.905 16.095 6.684 20.052C5.454 24.018 3.384 26.532 0 26.856V30.501C3.384 30.822 5.457 33.336 6.681 37.305C7.905 41.262 8.073 46.113 7.941 49.86C7.806 53.76 10.845 57.357 14.955 57.357H57.051C61.161 57.357 64.2 53.76 64.062 49.86C63.933 46.113 64.101 41.262 65.322 37.305C66.549 33.336 68.616 30.825 72 30.501V26.856C68.616 26.532 66.549 24.018 65.322 20.052C64.101 16.092 63.933 11.241 64.062 7.494C64.2 3.594 61.158 0 57.051 0H14.955ZM48.81 35.307C48.81 40.677 44.805 43.932 38.16 43.932H26.847C26.5232 43.932 26.2126 43.8034 25.9836 43.5744C25.7546 43.3454 25.626 43.0348 25.626 42.711V14.643C25.6268 14.3197 25.7558 14.0099 25.9847 13.7816C26.2136 13.5532 26.5237 13.425 26.847 13.425H38.097C43.638 13.425 47.277 16.425 47.277 21.036C47.277 24.27 44.829 27.165 41.712 27.675V27.843C45.957 28.308 48.813 31.248 48.813 35.307H48.81ZM36.93 17.292H30.48V26.406H35.913C40.113 26.406 42.429 24.714 42.429 21.69C42.429 18.858 40.437 17.292 36.93 17.292ZM30.48 30.021V40.062H37.17C41.541 40.062 43.86 38.307 43.86 35.01C43.86 31.71 41.478 30.021 36.888 30.021H30.48Z" fill="white"/>
</svg>
