<svg viewBox="0 0 72 71" fill="none" xmlns="http://www.w3.org/2000/svg">
<path fill-rule="evenodd" clip-rule="evenodd" d="M36 0C16.11 0 0 16.11 0 36C0 51.93 10.305 65.385 24.615 70.155C26.415 70.47 27.09 69.39 27.09 68.445C27.09 67.59 27.045 64.755 27.045 61.74C18 63.405 15.66 59.535 14.94 57.51C14.535 56.475 12.78 53.28 11.25 52.425C9.99 51.75 8.19 50.085 11.205 50.04C14.04 49.995 16.065 52.65 16.74 53.73C19.98 59.175 25.155 57.645 27.225 56.7C27.54 54.36 28.485 52.785 29.52 51.885C21.51 50.985 13.14 47.88 13.14 34.11C13.14 30.195 14.535 26.955 16.83 24.435C16.47 23.535 15.21 19.845 17.19 14.895C17.19 14.895 20.205 13.95 27.09 18.585C29.97 17.775 33.03 17.37 36.09 17.37C39.15 17.37 42.21 17.775 45.09 18.585C51.975 13.905 54.99 14.895 54.99 14.895C56.97 19.845 55.71 23.535 55.35 24.435C57.645 26.955 59.04 30.15 59.04 34.11C59.04 47.925 50.625 50.985 42.615 51.885C43.92 53.01 45.045 55.17 45.045 58.545C45.045 63.36 45 67.23 45 68.445C45 69.39 45.675 70.515 47.475 70.155C54.6215 67.7422 60.8315 63.149 65.231 57.0221C69.6304 50.8951 71.9978 43.5429 72 36C72 16.11 55.89 0 36 0Z" fill="white"/>
</svg>
