<svg viewBox="0 0 72 73" fill="none" xmlns="http://www.w3.org/2000/svg">
<path d="M33.642 0.0178867C33.486 0.0328867 32.994 0.0838867 32.55 0.116887C22.326 1.04089 12.75 6.55789 6.678 15.0389C3.3249 19.6941 1.14516 25.0899 0.324 30.7679C0.036 32.7479 0 33.3299 0 36.0119C0 38.6939 0.036 39.2789 0.324 41.2559C2.28 54.7769 11.904 66.1349 24.951 70.3439C27.288 71.0969 29.751 71.6099 32.55 71.9219C33.642 72.0419 38.358 72.0419 39.45 71.9219C44.283 71.3849 48.381 70.1879 52.419 68.1269C53.04 67.8119 53.16 67.7249 53.076 67.6559C51.1008 65.051 49.1457 62.4309 47.211 59.7959L41.454 52.0169L34.242 41.3399C31.8424 37.7687 29.4203 34.2126 26.976 30.6719C26.949 30.6629 26.922 35.4059 26.907 41.2019C26.886 51.3419 26.877 51.7499 26.751 51.9899C26.6281 52.27 26.4088 52.4967 26.133 52.6289C25.908 52.7429 25.713 52.7639 24.648 52.7639H23.43L23.106 52.5599C22.9055 52.4333 22.7428 52.2551 22.635 52.0439L22.485 51.7289L22.5 37.6169L22.521 23.4989L22.74 23.2229C22.8874 23.0503 23.0642 22.9051 23.262 22.7939C23.55 22.6529 23.661 22.6409 24.882 22.6409C26.316 22.6409 26.556 22.6949 26.928 23.1029C27.033 23.2169 30.939 29.1029 35.613 36.1889L49.815 57.7049L55.515 66.3389L55.806 66.1499C58.5492 64.3262 61.0362 62.1438 63.201 59.6609C67.7375 54.4688 70.6801 48.0784 71.676 41.2559C71.964 39.2759 72 38.6939 72 36.0119C72 33.3299 71.964 32.7479 71.676 30.7679C69.72 17.2499 60.096 5.88889 47.049 1.67989C44.6105 0.904594 42.0997 0.378898 39.555 0.110887C38.877 0.0388867 34.227 -0.0391133 33.645 0.0208867L33.642 0.0178867ZM48.381 21.7979C48.5483 21.8821 48.6973 21.9987 48.8193 22.1408C48.9413 22.2829 49.034 22.4478 49.092 22.6259C49.146 22.8059 49.161 26.7209 49.146 35.5409L49.125 48.1949L46.896 44.7749L44.658 41.3549V32.1569C44.658 26.2079 44.685 22.8659 44.727 22.7039C44.7769 22.5165 44.8644 22.3412 44.984 22.1886C45.1036 22.0359 45.253 21.9091 45.423 21.8159C45.714 21.6659 45.819 21.6539 46.923 21.6539C47.964 21.6539 48.147 21.6689 48.381 21.7949V21.7979Z" fill="white"/>
</svg>
