<svg viewBox="0 0 66 73" fill="none" xmlns="http://www.w3.org/2000/svg">
<path d="M33 72.8681C31.974 72.8681 31.02 72.6011 30.129 72.1391L21.042 66.9251C19.677 66.1991 20.361 65.9351 20.772 65.8031C22.614 65.2091 22.956 65.0771 24.87 64.0181C25.074 63.8861 25.35 63.9521 25.554 64.0841L32.523 68.1131C32.793 68.2451 33.138 68.2451 33.342 68.1131L60.603 52.8611C60.873 52.7291 61.011 52.4651 61.011 52.1351V21.6971C61.011 21.3671 60.876 21.1031 60.603 20.9711L33.342 5.78808C33.069 5.65608 32.727 5.65608 32.523 5.78808L5.262 20.9711C4.989 21.1031 4.851 21.4331 4.851 21.6971V52.1351C4.851 52.3991 4.989 52.7291 5.262 52.8611L12.708 57.0221C16.74 59.0021 19.266 56.6921 19.266 54.3821V24.3401C19.266 23.9441 19.608 23.5481 20.088 23.5481H23.571C23.982 23.5481 24.39 23.8781 24.39 24.3401V54.3791C24.39 59.5961 21.453 62.6321 16.329 62.6321C14.757 62.6321 13.527 62.6321 10.044 60.9821L2.871 57.0221C2.00665 56.5468 1.28485 55.8494 0.780141 55.0019C0.275432 54.1544 0.00611363 53.1875 0 52.2011V21.7631C0 19.7831 1.092 17.9351 2.871 16.9451L30.132 1.69008C31.0195 1.23494 32.0026 0.997559 33 0.997559C33.9974 0.997559 34.9805 1.23494 35.868 1.69008L63.132 16.9421C64.908 17.9321 66 19.7801 66 21.7601V52.1981C66 54.1781 64.908 56.0261 63.132 57.0191L35.868 72.2681C34.9628 72.6605 33.9866 72.8627 33 72.8621V72.8681ZM41.403 51.9371C29.448 51.9371 26.988 46.6571 26.988 42.1661C26.988 41.7701 27.33 41.3741 27.807 41.3741H31.359C31.77 41.3741 32.109 41.6381 32.109 42.0341C32.658 45.5321 34.23 47.2481 41.472 47.2481C47.211 47.2481 49.671 45.9941 49.671 43.0241C49.671 41.3081 48.987 40.0541 40.038 39.1961C32.589 38.4671 27.945 36.8861 27.945 31.1411C27.945 25.7921 32.589 22.6211 40.38 22.6211C49.125 22.6211 53.43 25.5281 53.976 31.8671C53.9699 32.0817 53.8976 32.2892 53.769 32.4611C53.634 32.5931 53.43 32.7251 53.223 32.7251H49.671C49.4984 32.7209 49.3319 32.6607 49.1966 32.5535C49.0613 32.4464 48.9646 32.2981 48.921 32.1311C48.099 28.5011 45.981 27.3101 40.38 27.3101C34.092 27.3101 33.342 29.4221 33.342 31.0061C33.342 32.9231 34.23 33.5171 42.702 34.5731C51.105 35.6291 55.068 37.1471 55.068 42.8231C54.999 48.6371 50.082 51.9371 41.403 51.9371V51.9371Z" fill="white"/>
</svg>
