<svg viewBox="0 0 72 40" fill="none" xmlns="http://www.w3.org/2000/svg">
<path d="M36 0.5C15.813 0.5 0 9.065 0 20C0 30.935 15.813 39.5 36 39.5C56.187 39.5 72 30.935 72 20C72 9.065 56.187 0.5 36 0.5ZM32.262 6.5H36.192L34.944 12.5H38.454C40.68 12.5 42.174 12.812 43.026 13.589C43.857 14.357 44.109 15.617 43.776 17.333L42.216 24.5H38.22L39.657 17.873C39.831 16.964 39.762 16.331 39.456 15.998C39.153 15.665 38.484 15.5 37.482 15.5H34.335L32.436 24.5H28.5L32.262 6.5ZM15 12.5H22.998C26.811 12.5 29.121 15.056 28.218 18.869C27.168 23.3 24.36 24.5 19.188 24.5H16.716L15.933 29H11.958L15 12.5ZM46.5 12.5H54.498C58.311 12.5 60.621 15.056 59.718 18.869C58.668 23.3 55.857 24.5 50.688 24.5H48.216L47.433 29H43.458L46.5 12.5ZM18.405 15.5L17.274 21.5H19.839C22.059 21.5 24.123 21.248 24.468 17.936C24.597 16.655 24.063 15.5 21.498 15.5H18.405ZM49.905 15.5L48.774 21.5H51.339C53.559 21.5 55.623 21.248 55.968 17.936C56.097 16.655 55.566 15.5 52.998 15.5H49.905Z" fill="white"/>
</svg>
