<svg viewBox="0 0 72 65" fill="none" xmlns="http://www.w3.org/2000/svg">
<path d="M72 32.067C72 27.297 66.027 22.776 56.868 19.974C58.983 10.641 58.044 3.213 53.904 0.834C52.9008 0.272161 51.7655 -0.0106437 50.616 0.015V3.285C51.291 3.285 51.834 3.42 52.29 3.669C54.285 4.815 55.152 9.171 54.477 14.778C54.315 16.158 54.051 17.61 53.727 19.092C50.6599 18.3529 47.547 17.8187 44.409 17.493C42.5396 14.9139 40.5 12.4624 38.304 10.155C43.089 5.709 47.58 3.273 50.634 3.273V0C46.596 0 41.313 2.877 35.97 7.866C30.63 2.91 25.344 0.0599999 21.309 0.0599999V3.33C24.348 3.33 28.854 5.754 33.639 10.17C31.584 12.33 29.529 14.778 27.576 17.493C24.4315 17.8151 21.3131 18.3544 18.243 19.107C17.9185 17.7024 17.6632 16.2827 17.478 14.853C16.788 9.243 17.64 4.887 19.623 3.729C20.061 3.465 20.634 3.345 21.309 3.345V0.0749999C20.079 0.0749999 18.96 0.339 17.994 0.894C13.869 3.273 12.945 10.683 15.072 19.989C5.943 22.809 0 27.312 0 32.067C0 36.837 5.973 41.358 15.132 44.157C13.017 53.493 13.956 60.921 18.096 63.297C19.05 63.855 20.166 64.119 21.396 64.119C25.434 64.119 30.717 61.242 36.06 56.253C41.4 61.212 46.683 64.059 50.721 64.059C51.8793 64.0835 53.0233 63.7998 54.036 63.237C58.161 60.861 59.085 53.451 56.958 44.145C66.057 41.343 72 36.822 72 32.067ZM52.89 22.278C52.32 24.2396 51.6592 26.1736 50.91 28.074C49.6835 25.6883 48.3368 23.3663 46.875 21.117C48.96 21.426 50.97 21.807 52.893 22.278H52.89ZM46.17 37.908C45.0712 39.8264 43.8911 41.6971 42.633 43.515C38.2298 43.9031 33.8011 43.9081 29.397 43.53C26.8708 39.9215 24.6616 36.1013 22.794 32.112C24.6587 28.1133 26.8586 24.2796 29.37 20.652C33.7722 20.2631 38.1998 20.2571 42.603 20.634C43.821 22.38 45.012 24.246 46.155 26.214C47.271 28.134 48.285 30.084 49.209 32.052C48.2747 34.0439 47.2609 35.9974 46.17 37.908ZM50.91 36C51.702 37.965 52.38 39.933 52.935 41.841C51.015 42.312 48.987 42.708 46.89 43.014C48.3457 40.7443 49.6874 38.4034 50.91 36ZM36.03 51.66C34.665 50.25 33.3 48.681 31.95 46.962C33.27 47.022 34.62 47.067 35.985 47.067C37.365 47.067 38.73 47.037 40.065 46.962C38.745 48.681 37.38 50.25 36.03 51.66ZM25.11 43.014C23.0872 42.7209 21.0791 42.3345 19.092 41.856C19.635 39.963 20.31 38.01 21.072 36.06C21.675 37.23 22.308 38.406 22.998 39.582C23.688 40.755 24.39 41.901 25.11 43.014ZM35.955 12.474C37.32 13.884 38.685 15.453 40.035 17.172C38.715 17.112 37.365 17.067 36 17.067C34.62 17.067 33.255 17.097 31.92 17.172C33.24 15.453 34.605 13.884 35.955 12.474ZM25.095 21.12C23.6396 23.3848 22.2979 25.7207 21.075 28.119C20.3046 26.2064 19.6288 24.257 19.05 22.278C20.97 21.822 22.998 21.426 25.095 21.12ZM11.814 39.492C6.618 37.278 3.258 34.371 3.258 32.067C3.258 29.763 6.618 26.841 11.814 24.642C13.074 24.099 14.454 23.613 15.879 23.16C16.716 26.034 17.817 29.028 19.179 32.097C17.8931 34.9836 16.8056 37.9544 15.924 40.989C14.5304 40.5575 13.1587 40.0579 11.814 39.492ZM19.71 60.462C17.715 59.322 16.848 54.96 17.523 49.356C17.685 47.976 17.949 46.521 18.273 45.039C21.147 45.744 24.288 46.287 27.591 46.641C29.4605 49.2201 31.5001 51.6715 33.696 53.979C28.911 58.425 24.42 60.861 21.366 60.861C20.7898 60.8673 20.221 60.7313 19.71 60.465V60.462ZM54.522 49.281C55.212 54.888 54.36 59.247 52.377 60.405C51.939 60.669 51.366 60.786 50.691 60.786C47.652 60.786 43.146 58.365 38.361 53.946C40.5478 51.6482 42.5736 49.2024 44.424 46.626C47.5685 46.3039 50.6869 45.7646 53.757 45.012C54.096 46.494 54.357 47.916 54.522 49.281ZM60.171 39.492C58.911 40.035 57.531 40.521 56.106 40.974C55.2089 37.9239 54.1064 34.9381 52.806 32.037C54.156 28.986 55.239 26.007 56.061 23.145C57.4591 23.5779 58.8357 24.0775 60.186 24.642C65.382 26.856 68.742 29.763 68.742 32.067C68.727 34.371 65.367 37.293 60.171 39.492Z" fill="white"/>
<path d="M35.985 38.7749C37.764 38.7749 39.4703 38.0682 40.7283 36.8102C41.9862 35.5522 42.693 33.846 42.693 32.0669C42.693 30.2878 41.9862 28.5816 40.7283 27.3236C39.4703 26.0656 37.764 25.3589 35.985 25.3589C34.2059 25.3589 32.4997 26.0656 31.2417 27.3236C29.9837 28.5816 29.277 30.2878 29.277 32.0669C29.277 33.846 29.9837 35.5522 31.2417 36.8102C32.4997 38.0682 34.2059 38.7749 35.985 38.7749Z" fill="white"/>
</svg>
