<svg viewBox="0 0 64 68" fill="none" xmlns="http://www.w3.org/2000/svg">
<path d="M44 36.4001V31.6001H48.8V36.4001H44Z" fill="white"/>
<path fill-rule="evenodd" clip-rule="evenodd" d="M32 0.0209134L63.2 18.2225V49.7777L32 67.9841L0.800049 49.7777V18.2225L32 0.0161133V0.0209134ZM26.3936 17.2001C22.1519 17.2001 18.0838 18.8851 15.0845 21.8845C12.0851 24.8839 10.4 28.9519 10.4 33.1937V34.8065C10.4007 37.5319 11.0978 40.2119 12.4251 42.5922C13.7525 44.9725 15.6661 46.9741 17.9844 48.4071C20.3026 49.8401 22.9486 50.6569 25.6712 50.78C28.3938 50.9031 31.1027 50.3284 33.5408 49.1105L35.4752 48.1505L33.3248 43.8545L31.3952 44.8145C29.6896 45.6679 27.7942 46.0711 25.8889 45.9859C23.9836 45.9007 22.1317 45.3298 20.5091 44.3276C18.8865 43.3254 17.547 41.925 16.6178 40.2594C15.6886 38.5939 15.2006 36.7185 15.2 34.8113V33.1985C15.2003 31.291 15.6879 29.4152 16.6168 27.7491C17.5456 26.083 18.8848 24.6819 20.5073 23.6788C22.1297 22.6757 23.9816 22.1039 25.8872 22.0176C27.7928 21.9313 29.6887 22.3334 31.3952 23.1857L33.3248 24.1505L35.4752 19.8593L33.5408 18.8945C31.3207 17.7822 28.8721 17.202 26.3888 17.2001H26.3936ZM39.2 22.0001V26.8001H34.4V31.6001H39.2V36.4001H34.4V41.2001H39.2V46.0001H44V41.2001H48.8V46.0001H53.6V41.2001H58.4V36.4001H53.6V31.6001H58.4V26.8001H53.6V22.0001H48.8V26.8001H44V22.0001H39.2Z" fill="white"/>
</svg>
