<svg viewBox="0 0 48 72" fill="none" xmlns="http://www.w3.org/2000/svg">
<g clip-path="url(#clip0_80_46)">
<path fill-rule="evenodd" clip-rule="evenodd" d="M13.2449 0C5.90395 0 -5.36263e-05 6.159 -5.36263e-05 13.704C-5.36263e-05 18.291 2.18395 22.365 5.54095 24.852C3.81079 26.1483 2.40838 27.8318 1.44614 29.7678C0.483903 31.7037 -0.0113964 33.8381 -5.36263e-05 36C-5.36263e-05 40.59 2.18395 44.661 5.54095 47.148C3.81079 48.4443 2.40838 50.1278 1.44614 52.0638C0.483903 53.9997 -0.0113964 56.1341 -5.36263e-05 58.296C-5.36263e-05 65.841 5.90395 72 13.2449 72C20.5829 72 26.4899 65.841 26.4899 58.296V46.71C28.8099 48.6444 31.7343 49.7048 34.7549 49.707C42.0959 49.704 47.9999 43.545 47.9999 36C48.012 33.838 47.517 31.7033 46.5547 29.7673C45.5924 27.8312 44.1896 26.1478 42.4589 24.852C44.1891 23.5557 45.5915 21.8722 46.5538 19.9362C47.516 18.0003 48.0113 15.8659 47.9999 13.704C47.9999 6.159 42.0959 0 34.7549 0H13.2449V0ZM4.97695 13.704C4.97695 8.931 8.70295 5.109 13.2449 5.109H21.5099V22.299H13.2449C8.70295 22.299 4.97695 18.474 4.97695 13.704V13.704ZM34.7549 22.296H26.4899V5.106H34.7549C39.2999 5.106 43.0229 8.931 43.0229 13.704C43.0229 18.474 39.2999 22.296 34.7549 22.296ZM4.97995 36C4.97995 31.23 8.70595 27.405 13.2479 27.405H21.5129V44.595H13.2449C8.69995 44.595 4.97695 40.77 4.97695 36H4.97995ZM26.4899 36C26.4899 31.23 30.2159 27.405 34.7579 27.405C39.3029 27.405 43.0259 31.227 43.0259 36C43.0259 40.77 39.3029 44.595 34.7579 44.595C30.2159 44.595 26.4929 40.773 26.4929 36H26.4899ZM4.97995 58.296C4.97995 53.526 8.70595 49.704 13.2479 49.704H21.5129V58.296C21.5129 63.069 17.7929 66.891 13.2479 66.891C8.70595 66.891 4.97995 63.069 4.97995 58.296Z" fill="white"/>
</g>
<defs>
<clipPath id="clip0_80_46">
<rect width="48.0004" height="72" fill="white" transform="translate(-0.000244141)"/>
</clipPath>
</defs>
</svg>
