<svg viewBox="0 0 60 60" fill="none" xmlns="http://www.w3.org/2000/svg">
<path d="M58.86 27.3241L32.667 1.13708C31.9406 0.414001 30.9574 0.00805664 29.9325 0.00805664C28.9076 0.00805664 27.9244 0.414001 27.198 1.13708L21.771 6.57008L28.668 13.4701C29.4817 13.1951 30.3563 13.1537 31.1923 13.3505C32.0284 13.5473 32.7926 13.9745 33.3983 14.5836C34.0039 15.1927 34.4268 15.9593 34.6188 16.7965C34.8109 17.6336 34.7646 18.5079 34.485 19.3201L41.127 25.9711C42.1104 25.626 43.1819 25.6259 44.1653 25.9707C45.1488 26.3155 45.9856 26.9847 46.5383 27.8683C47.0909 28.7518 47.3264 29.7971 47.206 30.8323C47.0857 31.8675 46.6166 32.8309 45.876 33.5641C44.079 35.3641 41.178 35.3641 39.378 33.5641C38.7386 32.924 38.3018 32.1099 38.122 31.2232C37.9423 30.3366 38.0275 29.4166 38.367 28.5781L32.145 22.3891V38.7001C32.583 38.9131 33.003 39.2071 33.366 39.5701C34.2237 40.4339 34.7051 41.6018 34.7051 42.8191C34.7051 44.0364 34.2237 45.2043 33.366 46.0681C32.938 46.4968 32.4297 46.8369 31.8701 47.0689C31.3106 47.3009 30.7108 47.4204 30.105 47.4204C29.4992 47.4204 28.8994 47.3009 28.3399 47.0689C27.7803 46.8369 27.272 46.4968 26.844 46.0681C26.417 45.6423 26.0781 45.1363 25.8469 44.5793C25.6157 44.0223 25.4967 43.4252 25.4967 42.8221C25.4967 42.219 25.6157 41.6218 25.8469 41.0648C26.0781 40.5078 26.417 40.0019 26.844 39.5761C27.3 39.1261 27.81 38.7841 28.356 38.5591V22.0891C27.7951 21.8594 27.2852 21.5209 26.8559 21.093C26.4266 20.6652 26.0864 20.1565 25.8548 19.5963C25.6233 19.0362 25.5051 18.4357 25.507 17.8296C25.5089 17.2235 25.6309 16.6238 25.866 16.0651L19.086 9.25208L1.125 27.1981C-0.375 28.7101 -0.375 31.1581 1.125 32.6701L27.318 58.8571C27.6764 59.2164 28.1021 59.5014 28.5708 59.6959C29.0395 59.8904 29.542 59.9906 30.0495 59.9906C30.557 59.9906 31.0595 59.8904 31.5282 59.6959C31.9969 59.5014 32.4226 59.2164 32.781 58.8571L58.851 32.7901C59.2121 32.4327 59.4988 32.0073 59.6948 31.5386C59.8908 31.0699 59.9921 30.567 59.993 30.059C59.9938 29.5509 59.8941 29.0477 59.6997 28.5783C59.5052 28.109 59.2199 27.6827 58.86 27.3241Z" fill="white"/>
</svg>
