<svg viewBox="0 0 54 54" fill="none" xmlns="http://www.w3.org/2000/svg">
<path d="M0 0H54V54H0V0ZM49.575 41.121C49.182 38.658 47.577 36.588 42.819 34.656C41.163 33.879 39.324 33.342 38.772 32.094C38.568 31.35 38.538 30.948 38.67 30.507C39.009 29.055 40.731 28.62 42.081 29.022C42.96 29.292 43.77 29.967 44.277 31.05C46.602 29.529 46.602 29.529 48.225 28.518C47.616 27.576 47.313 27.165 46.908 26.76C45.489 25.176 43.599 24.366 40.53 24.435L38.946 24.636C37.425 25.008 35.973 25.821 35.097 26.898C32.532 29.802 33.273 34.863 36.378 36.96C39.447 39.255 43.941 39.759 44.514 41.919C45.054 44.553 42.558 45.396 40.089 45.093C38.268 44.685 37.254 43.776 36.141 42.087L32.025 44.451C32.496 45.528 33.036 46.002 33.846 46.947C37.761 50.895 47.55 50.694 49.305 44.685C49.368 44.484 49.845 43.101 49.473 40.974L49.575 41.121ZM29.364 24.819H24.306C24.306 29.178 24.285 33.513 24.285 37.881C24.285 40.653 24.426 43.197 23.973 43.98C23.232 45.531 21.315 45.333 20.448 45.057C19.557 44.619 19.104 44.01 18.579 43.134C18.438 42.9 18.333 42.696 18.294 42.696L14.19 45.228C14.877 46.647 15.879 47.865 17.172 48.639C19.095 49.788 21.678 50.16 24.384 49.554C26.148 49.044 27.669 47.997 28.458 46.377C29.61 44.286 29.364 41.718 29.355 38.85C29.379 34.227 29.355 29.601 29.355 24.945L29.364 24.819Z" fill="white"/>
</svg>
