<svg viewBox="0 0 75 72" fill="none" xmlns="http://www.w3.org/2000/svg">
<path d="M73.387 70.2361L71.863 68.7841C71.1364 67.8216 70.324 66.927 69.436 66.1111L69.421 66.0991C68.525 65.2851 67.594 64.5111 66.628 63.7771C65.854 63.2451 64.79 62.6041 63.436 61.8541C62.3374 61.3664 61.4616 60.4843 60.982 59.3821L60.97 59.3521L60.826 59.2801C61.462 59.2171 62.044 59.1001 62.602 58.9351L62.533 58.9531L64.243 58.4821C64.951 58.2601 65.77 58.1161 66.619 58.0831H66.637C67.531 58.0471 68.374 57.9031 69.178 57.6661L69.103 57.6841C69.491 57.5881 69.89 57.4791 70.3 57.3571C70.71 57.2351 71.061 57.1261 71.353 57.0301V56.5231C71.063 56.0891 70.712 55.5931 70.3 55.0351C69.9179 54.513 69.4714 54.0412 68.971 53.6311L68.956 53.6191C67.698 52.5071 66.395 51.4311 65.047 50.3911C63.7833 49.4092 62.4706 48.492 61.114 47.6431L60.91 47.5231C60.1276 47.0116 59.299 46.5747 58.435 46.2181L58.333 46.1821C57.437 45.8181 56.554 45.4191 55.684 44.9851C55.3706 44.8316 55.0418 44.7119 54.703 44.6281L54.67 44.6221C54.3316 44.5547 54.0254 44.3763 53.8 44.1151L53.797 44.1121C53.3714 43.547 53.014 42.9338 52.732 42.2851L52.708 42.2251C52.418 41.5471 52.104 40.8961 51.766 40.2721C51.04 38.8681 50.338 37.4411 49.66 35.9911C48.982 34.5411 48.331 33.0891 47.707 31.6351C47.273 30.6671 46.874 29.7001 46.51 28.7341C46.1419 27.7494 45.6787 26.8029 45.127 25.9081L45.166 25.9771C43.9705 23.9274 42.6364 21.9618 41.173 20.0941L41.257 20.2081C39.9179 18.5121 38.4549 16.9177 36.88 15.4381L36.856 15.4171C35.3072 13.9639 33.6723 12.6055 31.96 11.3491L31.813 11.2441C30.021 9.94206 28.061 8.66006 25.933 7.39806C25.0285 6.87047 24.0538 6.47354 23.038 6.21906L22.96 6.20106L19.621 5.36706L17.734 5.22306C17.106 5.17506 16.477 5.15106 15.847 5.15106C15.4222 4.92871 15.0312 4.64687 14.686 4.31406C14.3524 3.99667 13.9986 3.70106 13.627 3.42906L13.597 3.40806C11.6483 2.28354 9.59581 1.34923 7.46802 0.61806L7.21302 0.54006C6.68384 0.237305 6.09333 0.0574585 5.48523 0.013837C4.87712 -0.0297845 4.267 0.0639361 3.70002 0.28806L3.72702 0.27906C3.16871 0.498005 2.66553 0.837338 2.2533 1.2729C1.84107 1.70847 1.52992 2.22955 1.34202 2.79906L1.33302 2.82906C1.01467 3.59355 0.911238 4.43049 1.0339 5.24948C1.15657 6.06847 1.50066 6.83839 2.02902 7.47606L2.02302 7.46706C3.11102 8.91706 3.94502 10.0571 4.52502 10.8871C4.95902 11.4691 5.40702 12.0741 5.86902 12.7021C6.29202 13.2661 6.66702 13.9111 6.97002 14.5921L6.99402 14.6551C7.16202 15.0121 7.30902 15.4381 7.41702 15.8761L7.42602 15.9241C7.52202 16.3361 7.64302 16.7841 7.78902 17.2681C8.22302 18.3801 8.63402 19.5201 9.02202 20.6881C9.44502 21.9631 9.91302 23.0431 10.456 24.0721L10.399 23.9521C10.689 24.4841 10.98 25.0041 11.272 25.5121C11.564 26.0201 11.878 26.5161 12.214 27.0001C12.4046 27.2876 12.6503 27.5343 12.937 27.7261L12.946 27.7321C13.0963 27.8398 13.22 27.9804 13.3078 28.1431C13.3957 28.3058 13.4453 28.4863 13.453 28.6711V28.6741C13.0991 29.1998 12.8759 29.8026 12.802 30.4321L12.799 30.4501C12.7049 31.1567 12.5514 31.8542 12.34 32.5351L12.364 32.4451C11.6583 34.6056 11.3028 36.8652 11.311 39.1381C11.311 39.9121 11.35 40.6741 11.431 41.4271L11.422 41.3341C11.602 44.2081 12.469 46.8481 13.858 49.1341L13.816 49.0591C14.407 49.9441 15.04 50.7151 15.739 51.4201C16.1451 51.8768 16.6921 52.1849 17.2933 52.2952C17.8944 52.4055 18.5152 52.3119 19.057 52.0291L19.042 52.0351C19.5619 51.8518 20.0155 51.5181 20.3451 51.0763C20.6747 50.6345 20.8654 50.1046 20.893 49.5541V49.5481C21.037 48.1261 21.253 46.8541 21.55 45.6121L21.511 45.8131C21.587 45.6107 21.6257 45.3962 21.625 45.1801L21.619 45.0451V45.0511C21.595 44.8331 21.728 44.6271 22.018 44.4331V44.5771C22.308 45.2551 22.61 45.9321 22.924 46.6081C23.238 47.2841 23.564 47.9611 23.902 48.6391C24.787 49.9861 25.726 51.1621 26.758 52.2451L26.749 52.2361C27.7756 53.3447 28.908 54.3504 30.13 55.2391L30.196 55.2841C30.832 55.7701 31.39 56.2951 31.894 56.8681L31.906 56.8801C32.38 57.4381 32.947 57.8971 33.586 58.2421L33.616 58.2571V58.1851H33.76C33.6462 57.9303 33.4579 57.7159 33.22 57.5701L33.214 57.5671C32.9939 57.4457 32.7824 57.3094 32.581 57.1591L32.596 57.1681C32.162 56.7341 31.714 56.2501 31.252 55.7161C30.79 55.1821 30.367 54.6741 29.983 54.1921C28.967 52.7881 27.998 51.3211 27.076 49.7911C26.154 48.2611 25.283 46.7061 24.463 45.1261C24.075 44.3521 23.7 43.5541 23.338 42.7321C22.976 41.9101 22.625 41.1121 22.285 40.3381C22.1311 40.0235 22.0336 39.6843 21.997 39.3361V39.3211C21.9889 39.1563 21.9382 38.9964 21.8499 38.8571C21.7616 38.7177 21.6386 38.6037 21.493 38.5261L21.487 38.5231C21.1436 39.1135 20.7328 39.6622 20.263 40.1581L20.266 40.1551C19.7842 40.6628 19.3962 41.2519 19.12 41.8951L19.105 41.9341C18.656 43.042 18.3641 44.2073 18.238 45.3961L18.232 45.4531C18.088 46.7351 17.943 48.0531 17.797 49.4071L17.653 49.4791L17.581 49.5511C17.2055 49.4757 16.8516 49.3173 16.5453 49.0873C16.239 48.8573 15.9881 48.5617 15.811 48.2221L15.805 48.2071C15.441 47.5051 15.115 46.8151 14.827 46.1371C14.0411 44.0809 13.612 41.9056 13.558 39.7051V39.6781C13.4022 37.3267 13.6933 34.9671 14.416 32.7241L14.38 32.8561C14.524 32.3241 14.838 31.4281 15.322 30.1681C15.806 28.9081 15.903 28.0371 15.613 27.5551C15.4699 27.078 15.1942 26.6514 14.818 26.3251L14.815 26.3221C14.4564 26.0115 14.1206 25.6756 13.81 25.3171L13.801 25.3051C13.463 24.8171 13.137 24.2971 12.823 23.7451C12.509 23.1931 12.231 22.6491 11.989 22.1131C11.4304 20.7912 10.9555 19.4355 10.567 18.0541L10.501 17.7871C10.0742 16.2434 9.52647 14.7358 8.86302 13.2781L8.94102 13.4701C8.63064 12.7577 8.23797 12.0841 7.77102 11.4631L7.78902 11.4871C7.30102 10.8351 6.86502 10.2181 6.48102 9.63606C5.99302 9.00806 5.50902 8.40306 5.02902 7.82106C4.52884 7.21525 4.10002 6.5539 3.75102 5.85006L3.72402 5.79006C3.57052 5.47666 3.45085 5.14781 3.36702 4.80906L3.36102 4.77606C3.30948 4.60563 3.29593 4.42598 3.32133 4.24975C3.34673 4.07352 3.41045 3.905 3.50802 3.75606L3.50502 3.76206C3.53709 3.59984 3.61281 3.44944 3.72402 3.32706C3.84548 3.2185 3.99348 3.14398 4.15302 3.11106H4.15902C4.39571 2.95755 4.66781 2.86729 4.94933 2.84891C5.23085 2.83053 5.51237 2.88463 5.76702 3.00606L5.75802 3.00306C6.41502 3.18906 6.94602 3.37506 7.46502 3.58806L7.35702 3.54906C8.27502 3.93706 9.12202 4.31206 9.89802 4.67406C10.792 5.10006 11.554 5.55006 12.274 6.05106L12.22 6.01506C12.608 6.25706 12.995 6.52306 13.381 6.81306C13.767 7.10306 14.178 7.39406 14.614 7.68606H15.631C16.405 7.68606 17.227 7.72306 18.097 7.79706C18.976 7.86606 19.789 8.03106 20.563 8.28906L20.491 8.26806C21.934 8.69706 23.173 9.20406 24.349 9.81306L24.226 9.75606C25.412 10.3601 26.537 11.0011 27.601 11.6791C29.368 12.7801 30.895 13.9081 32.332 15.1411L32.281 15.0991C33.781 16.3831 35.143 17.7001 36.421 19.0921L36.451 19.1281C37.699 20.4901 38.89 21.9691 39.979 23.5201L40.072 23.6611C41.074 25.0771 42.085 26.7151 42.994 28.4131L43.12 28.6681C43.3879 29.1886 43.6224 29.7257 43.822 30.2761L43.855 30.3751C44.049 30.9311 44.266 31.5011 44.506 32.0851C45.038 33.2951 45.608 34.5161 46.216 35.7481C46.824 36.9801 47.394 38.1781 47.926 39.3421L49.522 42.8251C50.083 44.0431 50.71 45.0931 51.439 46.0621L51.406 46.0171C52.015 46.6681 52.828 47.1241 53.74 47.2831L53.764 47.2861C54.868 47.5621 55.798 47.8741 56.698 48.2431L56.557 48.1921C56.986 48.3871 57.538 48.5941 58.105 48.7771L58.225 48.8101C58.861 49.0051 59.413 49.2631 59.92 49.5871L59.893 49.5721C60.874 50.1211 61.705 50.6611 62.497 51.2491L62.434 51.2041C63.256 51.8081 64.078 52.3781 64.9 52.9141C65.288 53.2041 65.939 53.6271 66.853 54.1831C67.767 54.7391 68.251 55.2591 68.305 55.7431C66.467 55.6794 64.6268 55.7667 62.803 56.0041L62.971 55.9861C61.4479 56.1838 59.9566 56.5771 58.534 57.1561L58.654 57.1141C58.277 57.2739 57.8877 57.4034 57.49 57.5011L57.433 57.5131C57.2264 57.5427 57.0356 57.6407 56.891 57.7912C56.7464 57.9418 56.6563 58.1364 56.635 58.3441V58.3471C56.818 58.5751 56.965 58.8391 57.064 59.1271L57.07 59.1451C57.172 59.4511 57.295 59.7151 57.445 59.9611L57.436 59.9431C57.793 60.5761 58.177 61.1221 58.609 61.6261L58.597 61.6111C59.02 62.1331 59.497 62.5861 60.025 62.9731L60.046 62.9881C60.534 63.3761 61.042 63.7751 61.57 64.1851C62.053 64.5631 62.599 64.9351 63.166 65.2711L63.238 65.3101C64.09 65.8321 65.08 66.3301 66.112 66.7471L66.25 66.7951C67.372 67.2451 68.335 67.7671 69.229 68.3881L69.181 68.3551C69.763 68.6931 70.343 69.0681 70.921 69.4801C71.499 69.8921 72.055 70.2911 72.589 70.6771C72.808 70.8931 73 71.1331 73.162 71.3941L73.171 71.4091C73.4477 71.7282 73.8321 71.9343 74.251 71.9881H74.26V71.8441C73.9947 71.6433 73.8012 71.3624 73.708 71.0431L73.705 71.0311C73.6364 70.7422 73.523 70.4659 73.369 70.2121L73.375 70.2241L73.387 70.2361ZM17.659 12.6211C17.271 12.6211 16.908 12.6331 16.57 12.6571C16.2403 12.6783 15.9146 12.7418 15.601 12.8461L15.628 12.8371V12.9091H15.772C15.966 13.1991 16.21 13.5251 16.504 13.8871C16.798 14.2491 17.064 14.6001 17.302 14.9401L18.463 17.3341L18.607 17.2621C18.9449 17.0189 19.207 16.685 19.363 16.2991L19.369 16.2841C19.525 15.8671 19.615 15.3811 19.615 14.8771L19.612 14.7151V14.7241C19.476 14.5918 19.3661 14.435 19.288 14.2621L19.285 14.2531L19.042 13.7071C18.8864 13.4585 18.6639 13.2589 18.4 13.1311L18.391 13.1281C18.1215 12.9993 17.8743 12.8282 17.659 12.6211Z" fill="white"/>
</svg>
