<svg viewBox="0 0 60 60" fill="none" xmlns="http://www.w3.org/2000/svg">
<path d="M30 0C46.566 0 60 13.434 60 30C60 46.566 46.566 60 30 60C13.434 60 0 46.566 0 30C0 13.434 13.434 0 30 0ZM24.039 39.996C24.477 41.607 24.429 43.113 23.976 44.475L23.814 44.925C23.435 45.8321 22.8999 46.6657 22.233 47.388C20.487 49.287 18.051 50.004 17.007 49.401C15.882 48.744 16.443 46.065 18.468 43.926C20.646 41.631 23.766 40.152 23.766 40.152V40.146L24.039 39.996ZM48.813 12.843C47.457 7.512 38.622 5.757 30.258 8.73C25.29 10.497 19.899 13.275 16.029 16.899C11.421 21.201 10.689 24.951 10.989 26.517C12.054 32.046 19.632 35.661 22.749 38.343V38.358C21.828 38.805 15.105 42.18 13.533 45.672C11.844 49.347 13.797 51.975 15.072 52.308C19.011 53.397 23.058 51.408 25.236 48.186C27.333 45.033 27.15 40.986 26.247 38.997C27.486 38.661 28.944 38.511 30.819 38.739C36.072 39.336 37.122 42.639 36.891 43.989C36.669 45.336 35.583 46.122 35.208 46.347C34.83 46.575 34.719 46.65 34.755 46.8C34.794 47.022 34.983 47.022 35.28 46.989C35.694 46.914 38.022 45.864 38.133 43.308C38.244 40.086 35.169 36.489 29.694 36.558C27.444 36.6 26.016 36.786 25.005 37.2C24.9368 37.0942 24.8468 37.0042 24.741 36.936C21.366 33.297 15.102 30.747 15.366 25.911C15.441 24.147 16.077 19.5 27.366 13.875C36.63 9.261 44.019 10.539 45.297 13.35C47.127 17.358 41.355 24.825 31.719 25.911C28.044 26.325 26.133 24.9 25.641 24.372C25.119 23.808 25.047 23.772 24.858 23.889C24.555 24.039 24.744 24.525 24.858 24.828C25.158 25.575 26.319 26.892 28.347 27.564C30.108 28.128 34.419 28.461 39.597 26.439C45.408 24.192 49.944 17.925 48.633 12.675L48.813 12.843Z" fill="white"/>
</svg>
