<svg viewBox="0 0 54 54" fill="none" xmlns="http://www.w3.org/2000/svg">
<path d="M0 0H54V54H0V0ZM32.13 44.58C33.63 47.52 36.66 49.77 41.4 49.77C46.2 49.77 49.8 47.28 49.8 42.69C49.8 38.46 47.37 36.57 43.05 34.71L41.79 34.17C39.6 33.24 38.67 32.61 38.67 31.11C38.67 29.88 39.6 28.92 41.1 28.92C42.54 28.92 43.5 29.55 44.37 31.11L48.3 28.5C46.65 25.62 44.31 24.51 41.1 24.51C36.57 24.51 33.66 27.39 33.66 31.2C33.66 35.34 36.09 37.29 39.75 38.85L41.01 39.39C43.35 40.41 44.73 41.04 44.73 42.78C44.73 44.22 43.38 45.27 41.28 45.27C38.79 45.27 37.35 43.98 36.27 42.18L32.13 44.58ZM30 24.75H15V29.25H19.5V51H24.75V29.25H30V24.75Z" fill="white"/>
</svg>
