<svg width="681" height="401" viewBox="0 0 681 401" fill="none" xmlns="http://www.w3.org/2000/svg">
<g clip-path="url(#clip0_68_794)">
<path d="M2.8999 401V1H102.9H256.5L366 165.7L381.6 174L421 221.8L442.8 201L467.8 212.7L537.7 278.5H545.5L680.9 401H2.8999Z" fill="url(#paint0_linear_68_794)"/>
<g style="mix-blend-mode:soft-light" opacity="0.9">
<path fill-rule="evenodd" clip-rule="evenodd" d="M0.5 203.1L2.9 201.3L157.3 89.9L214.3 138.4L158.5 72.5L107.2 108.6L2.9 182.1V70.7L184.3 21.6L186.4 17.6L140.1 28.5L188.3 13.8L194.8 0.999994H202L243.1 66.1L307.8 185.1L326.1 211.9L331.3 212.2L300.1 149.3L357.6 221L411.1 280.1L334.4 180.1L247.9 61.7L226.3 35.5L202 0.999994H256.5L314.3 87.9L275.8 39.9L278.4 38.8L280.8 40.5L277.7 34.3L262.3 18.3L253.2 13.8L314.3 99.8L283.8 63L353.9 167.2L332.3 114.9L366.1 165.7L357.8 177.5L406 241.9L376.4 191.1L377.1 180.6L409.7 218L379.4 180.6L381.6 174L421 221.8L442.8 201L467.8 212.7L506.4 249.1L473.3 220.5H474.5L472.1 217.6L463.7 214L472.6 220.2L462.7 214.5L486.8 237.5L471.1 224.4L487.8 242.5L511.1 262L489.5 239.7L524.1 272.1L537.7 278.5H545.5L680.9 401H661L546.8 294.6L541.8 301L575.6 331L532.4 301L532.2 318.1L610.4 401H516.2L467.6 349.6L406 356.9L321.5 263.5L252.7 190.8L313.5 258.4L404.9 370L473.3 363.3L509.4 401H2.9V340.1L202.7 233.9L196.9 220.5L75.5 273.6L192.9 211.2L192.2 205.9L190.9 206.6L177.5 213.5L188.9 202L181 183.8L183.4 175.6L2.9 262.5L0.5 203.1ZM2.7 189.7L3 188.4L78.7 134.9L158.1 78.9L158.5 78.5L158.1 79.1L148.9 89.9L3 201.2L0.5 203.1L2.7 189.7ZM98.9 75.2L81.7 83.5L95.1 80.9L98.9 75.2ZM79.5 120.4L93.1 108.5L59 129L79.5 120.4ZM180.6 28.9L135.3 61.8L174.6 40.8L194.8 61.8L212.2 78.5L180.6 28.9ZM285.1 95.7L287.3 103.7L294.2 101.7L285.1 95.7ZM516.6 300.1L525.6 290.9L470.4 240.6L479.5 252.3L454.8 237.6L447.3 226.7L446.6 231.1L454.8 237.6L516.6 300.1ZM512.5 304.3H502.9L507.7 309.3L512.5 304.3ZM451.2 278.3L500.9 316.2L506.3 310.7L448.5 256.1L445 241.6L416.4 267.1L444.7 246.1L445 250.6L415.4 277.2L413.6 294.5L451.2 278.3ZM454 295.2L467.6 297.9L452.8 287.8L433.2 308.8L454 295.2ZM385 294.4L383.4 291.8L376.5 287.8L385 294.4ZM389.7 271.8L387.6 263.7L367.6 243.6L389.7 271.8ZM347.5 250L354.3 252.2L340.8 239L335.6 237.5L347.5 250ZM252.3 97.8L231.1 80.8L257 108.4L252.3 97.8ZM261 169.7L282.9 181.1L270.5 165.5L239.2 133.7L261 169.7ZM321.3 350.4L297.8 313.8L291.2 300.8L353.7 356.8L262.1 262.3L212 239L321.3 350.4ZM194.7 0.899994L2.7 40.7V0.899994H194.7Z" fill="white"/>
</g>
<g style="mix-blend-mode:soft-light">
<path d="M442.8 201L447.3 226.8L445.1 241.7L459.6 328.4L486.9 401H402.5L409.1 316L412.7 304.9L421 221.8L442.8 201Z" fill="white"/>
</g>
<g style="mix-blend-mode:soft-light">
<path fill-rule="evenodd" clip-rule="evenodd" d="M194.8 1L188.3 13.8L186.4 17.6L184.3 21.6L180.6 29L174.6 40.8L158.5 72.5L107.2 108.6L78.6999 134.9L158.1 78.9L158 79.1L157.3 89.9L252.7 190.8L321.5 263.5L313.5 258.4L183.4 175.6L181 183.8L188.9 202L190.9 206.6L192.9 211.2L196.9 220.5L202.7 233.9L275 401H2.8999V340.1L199 235.4L2.8999 305.3V1L194.8 1ZM58.9999 129.1L79.4999 120.5L93.0999 108.6L58.9999 129.1ZM95.0999 80.9L98.8999 75.3L81.6999 83.6L95.0999 80.9Z" fill="white"/>
</g>
<path d="M102.9 125L102.2 125.5L102.9 125Z" fill="white"/>
<g style="mix-blend-mode:soft-light">
<path d="M545.5 278.5L521.2 319.2L489.7 326.7L501 316.4L537.7 278.5H545.5Z" fill="white"/>
</g>
<path opacity="0.7" d="M366.1 165.7L381.6 174L376.4 191.1L367.7 207.9L357.8 177.4L366.1 165.7Z" fill="white"/>
<g style="mix-blend-mode:soft-light">
<path d="M409.1 316L354.4 252.4L386.3 280.1L412.7 304.9L409.1 316Z" fill="white"/>
</g>
<g style="mix-blend-mode:soft-light">
<path d="M268.7 150.3L210.1 75.3L248.2 108.6L268.7 150.3Z" fill="white"/>
</g>
<g style="mix-blend-mode:soft-light">
<path d="M262.3 262.5L316.9 284.2L402.5 378.7V401L262.3 262.5Z" fill="white"/>
</g>
<g style="mix-blend-mode:soft-light">
<path fill-rule="evenodd" clip-rule="evenodd" d="M2.9002 182.1V106.3L135.3 61.9L174.6 40.8L158.5 72.5L158.1 78.9L2.9002 189.6L2.7002 189.8L2.9002 182.1ZM79.5002 120.5L93.0002 108.6L58.9002 129.1L79.5002 120.5ZM81.8002 83.6L95.1002 81L98.9002 75.3L81.8002 83.6Z" fill="white"/>
</g>
<g style="mix-blend-mode:soft-light">
<path d="M180.6 29L135.3 61.9L2.8999 78.6V70.7L184.3 21.6L180.6 29Z" fill="white"/>
</g>
<g style="mix-blend-mode:soft-light">
<path d="M186.4 17.6L140.1 28.5L188.3 13.8L186.4 17.6Z" fill="white"/>
</g>
<g style="mix-blend-mode:soft-light">
<path d="M194.8 1L2.8999 40.8V1H194.8Z" fill="white"/>
</g>
<g style="mix-blend-mode:soft-light">
<path d="M183.4 175.6L181 183.8L196.9 220.5L2.8999 305.3V340.1L202.7 233.9L235.4 309.5L130.7 401L238.2 316L148.9 401H2.8999V273.2L183.4 175.6Z" fill="white"/>
</g>
<g style="mix-blend-mode:soft-light" opacity="0.9">
<path d="M467.6 349.6L406 356.9L459.6 328.4L467.6 349.6Z" fill="white"/>
</g>
<g style="mix-blend-mode:soft-light" opacity="0.9">
<path d="M473.3 363.3L486.9 401H402.5L404.9 370L473.3 363.3Z" fill="white"/>
</g>
<g style="mix-blend-mode:soft-light" opacity="0.9">
<path d="M445.1 250.8L415.4 277.4L416.4 267.3L444.7 246.2L445.1 250.8Z" fill="white"/>
</g>
<g style="mix-blend-mode:soft-light">
<path d="M477.6 356.9L489.7 329.7L520.5 324.9L477.6 356.9Z" fill="white"/>
</g>
<g style="mix-blend-mode:soft-light">
<path d="M181 183.8L2.7002 284.2L2.9002 273.2L183.4 175.6L181 183.8Z" fill="white"/>
</g>
</g>
<defs>
<linearGradient id="paint0_linear_68_794" x1="682.9" y1="401" x2="682.9" y2="1" gradientUnits="userSpaceOnUse">
<stop stop-color="#FFC891"/>
<stop offset="0.5" stop-color="#9C7459"/>
<stop offset="1" stop-color="#9B5A32"/>
</linearGradient>
<clipPath id="clip0_68_794">
<rect width="681" height="401" fill="white"/>
</clipPath>
</defs>
</svg>
