<svg width="407" height="93" viewBox="0 0 407 93" fill="none" xmlns="http://www.w3.org/2000/svg">
<path d="M0.899796 57.5L66.4998 14.6L82.1998 1.59998L94.2998 0.0999756L212.5 47.4L214.2 46.2L406.4 92.1L0.299805 69.2L0.899796 57.5Z" fill="url(#paint0_linear_68_765)"/>
<g style="mix-blend-mode:soft-light" opacity="0.9">
<path fill-rule="evenodd" clip-rule="evenodd" d="M63.1998 72.8L66.8998 59L47.9998 71.9L20.5998 70.4L19.2998 65.7L45.5998 48.7L79.0998 19.7L70.6998 25.5L18.9998 64.9L16.2998 55.2L59.9998 22.4L66.4998 14.6L82.1998 1.69998L94.2998 0.0999756L122.6 15.9L142.7 23.3L94.2998 0.0999756L212.5 47.4L228.2 64.6L152.5 42.8L230.6 67.2L237 74.1L235 55.2L295.8 71.1L214.2 46.2L406.4 92.1L63.1998 72.8ZM192.1 63.5L194.4 65.7L210 68.7L199.7 65.5L192.1 63.5ZM69.7998 55.6L75.9998 50.1L80.9998 41.1L69.7998 55.6Z" fill="white"/>
</g>
<g style="mix-blend-mode:soft-light" opacity="0.9">
<path d="M212.5 47.4L237 74.1L240.6 82.8L150.5 77.7L123 39.8L128 32.3L103.8 16.7L153 33.7L96.9998 8.99997L94.2998 0.0999756L212.5 47.4Z" fill="white"/>
</g>
<g style="mix-blend-mode:soft-light" opacity="0.9">
<path d="M237 74.0999L212.5 47.3999L214.2 46.2L406.4 92.0999L251.1 83.3999L237 74.0999L235 55.2L237 74.0999Z" fill="white"/>
</g>
<g style="mix-blend-mode:soft-light" opacity="0.9">
<path d="M123 39.7999L233.2 69.9999L237 74.0999L210 68.7L127.3 45.7L131.7 51.5999L203.8 73.4999L225.6 81.8999L150.5 77.7L123 39.7999Z" fill="white"/>
</g>
<g style="mix-blend-mode:soft-light" opacity="0.9">
<path d="M146.7 31.5L96.9998 8.99997L94.2998 0.0999756L198.4 41.7L181 38.5L148.8 32.9L212.5 47.4L228.2 64.6L128 32.3L103.8 16.7L146.7 31.5Z" fill="white"/>
</g>
<g style="mix-blend-mode:soft-light" opacity="0.9">
<path d="M235 55.2L295.8 71.0999L368.9 89.9999L339.8 88.3999L236.4 68.0999L235 55.2Z" fill="white"/>
</g>
<g style="mix-blend-mode:soft-light" opacity="0.9">
<path d="M406.4 92.0999L287.2 68.8999L214.2 46.2L406.4 92.0999Z" fill="white"/>
</g>
<defs>
<linearGradient id="paint0_linear_68_765" x1="-1.7002" y1="69.1" x2="2.4998" y2="-5.00003" gradientUnits="userSpaceOnUse">
<stop stop-color="#B36F3D"/>
<stop offset="1" stop-color="#AE6122"/>
</linearGradient>
</defs>
</svg>
