<svg width="1004" height="374" viewBox="0 0 1004 374" fill="none" xmlns="http://www.w3.org/2000/svg">
<path style="mix-blend-mode:multiply" opacity="0.3" d="M126.7 278.8L104.8 307.6L119.7 280.9L134.1 265L126.7 278.8Z" fill="url(#paint0_linear_68_1511)"/>
<path d="M1003.5 241.8V374H3.3999V303L243.1 267.8L561.4 226.6L1003.5 241.8Z" fill="#A43E38"/>
<path style="mix-blend-mode:multiply" opacity="0.6" d="M708.7 258.7L573.9 278.2L446.6 318.9L465.9 329.5L433.1 363.8L139.4 374H68.9999L435.5 361.3L465.9 329.5L439.8 327.4L3.3999 350.9V341.7L243.1 336.2L279.1 333.5L382.2 319.1L446 313.6L493.9 294.1H486.1L358.3 281.8L308.5 282L203.5 294.1L64.9999 294L305.4 278.2L362.4 267.4L329.3 274.6L334.8 278.2L395.4 282.4L446.6 283.2L490.7 291.6H499L559.7 278.9L561 277.3L528.5 270.1L428.7 263.6L521.6 267.8L559.7 274.8L653.4 261.5L693.3 257.7L708.7 258.7Z" fill="url(#paint1_linear_68_1511)"/>
<path d="M731.2 238.6L783.7 238.4L826.9 238L872.5 236.6L878.8 236.8L879.7 236L922.3 229.7L933.2 235.8L936.5 238.6H972.5L1003.5 241.8V246.7L967.2 247.9L842.1 261.5L662 257.7L683.5 256.3L765.3 257.7L697.7 254.9L580.4 243.9L731.2 238.6Z" fill="#869827"/>
<path d="M1003.5 246V374L407.3 373.6L548.2 369.4L502.1 368.1L465.9 362.3L433.1 363.8L446.6 349.7L465.9 329.5L443.7 327.4L446.6 318.9L573.9 278.2L708.7 258.7L1003.5 246Z" fill="#869827"/>
<path d="M563.3 287.3L571.8 281.2L677.4 265L743.3 259.6L748.4 261.5V266.8L731.2 278.2L563.3 287.3Z" fill="#A43E38"/>
<path d="M473 321.4L476.4 317L616 287.3L705.4 282C754.2 279.933 781.633 278.9 787.7 278.9C793.767 278.9 799.367 279.733 804.5 281.4L722.9 304.7C669.5 314.167 638.833 318.9 630.9 318.9C622.967 318.9 580.033 320.567 502.1 323.9L473 321.4Z" fill="#A43E38"/>
<path d="M569.1 324.5L623.3 320.2L626.6 321.9L618.6 330.7L613.2 333.3C592.667 335.1 577 336 566.2 336C555.4 336 548.867 335.1 546.6 333.3C548.933 330.967 556.433 328.033 569.1 324.5Z" fill="url(#paint2_linear_68_1511)"/>
<path style="mix-blend-mode:multiply" opacity="0.5" d="M360.6 267.8L329.3 274.6L334.8 278.2L361.2 280L358.3 281.8L308.5 282L262.6 287.3L265.1 281.6L286.3 279.8L290.9 284L305.4 278.2L334.8 273.4L329.3 270.4L243.1 267.8H360.6Z" fill="url(#paint3_linear_68_1511)"/>
<path style="mix-blend-mode:multiply" opacity="0.5" d="M559.7 274.8L567.5 273.4L613.7 266.8L620.3 265L655.1 266.5L573.9 278.2L446.6 318.9L465.9 329.5L441.3 327.6L282 335.9V333.1L332.9 326L334.7 332.1L439.8 327.4L446 313.6L493.9 294.1H490.7V291.6H499L559.7 278.9L561 277.3L528.5 270.1L521.6 267.8L559.7 274.8Z" fill="url(#paint4_linear_68_1511)"/>
<path style="mix-blend-mode:multiply" opacity="0.5" d="M331.4 367.4L335.2 364.8L435.5 361.3L433.1 363.8L331.4 367.4Z" fill="url(#paint5_linear_68_1511)"/>
<g style="mix-blend-mode:soft-light">
<path d="M499 291.6H490.7L446.6 283.2L395.4 282.4L334.8 278.2L329.3 274.6L360.6 267.8L419.5 263.1L526.2 269.8L561 277.3L559.7 278.9L499 291.6Z" fill="#907F82"/>
</g>
<path style="mix-blend-mode:multiply" opacity="0.5" d="M432.9 289L446.6 283.2L468.6 287.4V292.4L432.9 289Z" fill="url(#paint6_linear_68_1511)"/>
<path style="mix-blend-mode:multiply" opacity="0.5" d="M421 287.8L423.3 282.8L430.1 282.9L426.3 288.3L421 287.8Z" fill="url(#paint7_linear_68_1511)"/>
<g style="mix-blend-mode:soft-light">
<path d="M559.7 274.8L521.6 267.8L432.9 263.5H527.3L618.6 265.5L613.7 266.8L559.7 274.8Z" fill="#725C60"/>
</g>
<g style="mix-blend-mode:soft-light">
<path d="M435.5 361.3L205.2 369.3L148.2 342.6L439.8 327.4L465.9 329.5L435.5 361.3Z" fill="#907F82"/>
</g>
<g style="mix-blend-mode:soft-light">
<path d="M125.1 284.3L243.1 267.8H360.6L318.6 276L292.4 279.3L65 294L125.1 284.3Z" fill="#725C60"/>
</g>
<path style="mix-blend-mode:multiply" opacity="0.5" d="M807.6 281.7L809.1 291.4C735.3 303.867 693.667 311 684.2 312.8C674.733 314.6 652.867 321.767 618.6 334.3L573.9 338.8L540.2 334L542 328.1L501.4 327.4L473 321.4L476.4 317L531.1 320.2L701.6 305.5L792 278.9L807.6 281.7Z" fill="url(#paint8_linear_68_1511)"/>
<path d="M607.3 346.8L603.5 340.3C636.1 327.1 657.9 319.1 668.9 316.3C685.5 312.2 792.8 291.4 809.1 291.4C825.4 291.4 887.3 295.1 901.2 301.4C910.467 305.6 920 314.5 929.8 328.1L919.7 336C854.633 356.267 812.767 367.4 794.1 369.4C775.433 371.4 713.167 363.867 607.3 346.8Z" fill="#A43E38"/>
<path style="mix-blend-mode:multiply" opacity="0.5" d="M901.2 301.4L938.6 323.9L940.4 330.5C889.2 356.9 841.767 370.8 798.1 372.2C754.5 373.533 690.9 365.067 607.3 346.8L603.5 340.3C699.1 359.033 759.167 366.867 783.7 363.8C820.6 359.3 923.4 326.7 923.4 323.9C923.4 322.033 918.3 315.933 908.1 305.6L901.2 301.4Z" fill="url(#paint9_linear_68_1511)"/>
<path style="mix-blend-mode:multiply" opacity="0.5" d="M571.8 281.2L689.7 278.9L733.7 274.8L748.4 261.5V266.8L731.2 278.2L563.3 287.3L571.8 281.2Z" fill="url(#paint10_linear_68_1511)"/>
<path d="M806.3 291.6C810.833 291.067 842.067 295.5 900 304.9C882.133 337.3 846.133 356.533 792 362.6C748.133 367.467 708.4 359.533 672.8 338.8L668.9 316.3C755.9 300.3 801.7 292.067 806.3 291.6Z" fill="#A43E38"/>
<g style="mix-blend-mode:soft-light">
<path d="M672.8 338.8L649 348.6L603.5 340.3C634.767 327.633 656.567 319.633 668.9 316.3L672.8 338.8Z" fill="#92959B"/>
</g>
<g style="mix-blend-mode:soft-light">
<path d="M616 287.3L541.3 313.6L506.3 318.8L476.4 317L616 287.3Z" fill="#92959B"/>
</g>
<path style="mix-blend-mode:multiply" opacity="0.6" d="M878.8 236.8L867.4 239.8L650.2 241.1L731.2 238.6L878.8 236.8Z" fill="url(#paint11_linear_68_1511)"/>
<path style="mix-blend-mode:multiply" opacity="0.6" d="M933.2 235.8L936.5 238.6H972.5L1003.5 241.8V249.4H889.2L938.1 246.7L955.9 244.6L940.4 240.5L929.8 240.2L921.4 240L897.2 240.2L929.8 238.6V233.9L933.2 235.8Z" fill="url(#paint12_linear_68_1511)"/>
<path style="mix-blend-mode:multiply" opacity="0.3" d="M817.6 273.4L922.3 266.8L1003.5 273.4H817.6Z" fill="url(#paint13_linear_68_1511)"/>
<path style="mix-blend-mode:multiply" opacity="0.3" d="M900 288.3L940.4 287.8L972.5 291.4L900 288.3Z" fill="url(#paint14_linear_68_1511)"/>
<path style="mix-blend-mode:multiply" opacity="0.3" d="M1003.5 374H878.8L959.3 352.5L901.5 360.6L1003.5 329.9V374Z" fill="url(#paint15_linear_68_1511)"/>
<path style="mix-blend-mode:multiply" opacity="0.3" d="M446.6 349.7L445.1 356.2H474.5L531.1 361.3L672.5 369.4H548.2L502.1 368.1L465.9 362.3L433.1 363.8L446.6 349.7Z" fill="url(#paint16_linear_68_1511)"/>
<path style="mix-blend-mode:multiply" opacity="0.5" d="M502.1 368.1L513.3 359.5L538.2 361.7L672.5 369.4L544.2 369.3L502.1 368.1Z" fill="url(#paint17_linear_68_1511)"/>
<path d="M234 290.6L389.4 318.5L382.2 319.1L292.4 313.6L347.8 323.9L343.1 324.6L218.9 309.4L211.3 308.5L226.4 313.6L282.1 323.9L119.7 304.4L158.7 292.3L234 290.6Z" fill="#869827"/>
<path style="mix-blend-mode:multiply" opacity="0.3" d="M292.4 313.6L232.1 305.8L290.3 311.5L382.2 319.1L292.4 313.6Z" fill="url(#paint18_linear_68_1511)"/>
<path style="mix-blend-mode:multiply" opacity="0.3" d="M211.3 308.5H203.5L135.3 299.4L266.1 313.6L343.1 324.6L211.3 308.5Z" fill="url(#paint19_linear_68_1511)"/>
<path style="mix-blend-mode:multiply" opacity="0.3" d="M119.7 304.4L129.1 301.4L282.1 323.9L119.7 304.4Z" fill="url(#paint20_linear_68_1511)"/>
<g style="mix-blend-mode:soft-light">
<path d="M726.1 303.8L839.8 351.9L837.9 359.7L829 362V354.9L722.9 304.7L726.1 303.8Z" fill="#B59AA0"/>
</g>
<g style="mix-blend-mode:soft-light">
<path d="M763.3 298L897.2 310L923.4 323.9L919.7 336L901.2 341.7L900.2 332.9L882.5 323.9L750 300.3L763.3 298Z" fill="#92959B"/>
</g>
<g style="mix-blend-mode:soft-light">
<path d="M668.9 284.1L792 278.9L795 283.7L750 297L748.4 291.4L616 287.3L668.9 284.1Z" fill="#92959B"/>
</g>
<g style="mix-blend-mode:soft-light">
<path d="M397.1 329.7L399.3 317.6L293.3 283.7L301.1 282.8L404.4 317.4L404.3 329L426.4 328L428.5 315.1L362.4 282.2L369.2 282.8L433.1 314.7L430.2 327.9L397.1 329.7Z" fill="#92959B"/>
</g>
<g style="mix-blend-mode:soft-light">
<path d="M254.4 337.4L408.7 361.3L378.6 362L238.3 338.3L254.4 337.4Z" fill="#92959B"/>
</g>
<g style="mix-blend-mode:soft-light">
<path d="M203.5 340.1L299.5 366L250.3 367.7L180 341.4L203.5 340.1Z" fill="#B59AA0"/>
</g>
<g style="mix-blend-mode:soft-light">
<path d="M416.9 264L446.6 283.2L434.5 282.8L414.3 263.8L416.9 264Z" fill="#B59AA0"/>
</g>
<g style="mix-blend-mode:soft-light">
<path d="M404.9 263.8L430.1 282.9H426.3L395 265L404.9 263.8Z" fill="#B59AA0"/>
</g>
<path d="M878.8 267.8L901.2 256.4L920.5 253.4H927.4L930.2 262.6L915.7 266.8L878.8 267.8Z" fill="#A43E38"/>
<path d="M925.8 265.4L936.5 261.5H943.8L958.1 264.5L951.4 266.8L925.8 265.4Z" fill="#A43E38"/>
<path style="mix-blend-mode:multiply" opacity="0.6" d="M878.8 267.8L915.4 262.6L921.6 260.6L927.4 253.4L930.2 262.6L936.5 261.5L931.2 264.2H942L958.1 264.5L966 265.6L953 269.3L922.3 266.8L878.8 267.8Z" fill="url(#paint21_linear_68_1511)"/>
<path d="M814.3 287.3L819.6 283.5L839.8 280.5L847.9 281.7L842.4 288.2L820.2 288L814.3 287.3Z" fill="#A43E38"/>
<path d="M563.3 345.4L577.2 341.7H587.3L593.4 343.5L580.4 347H564.7L563.3 345.4Z" fill="url(#paint22_linear_68_1511)"/>
<path d="M152.9 294L148.9 295L93.2999 312.9L84.2999 313.3L14.8999 335.2L4.4999 342.6L6.7999 350.9H3.3999V341.7L15.0999 332.7L83.5999 312.5H92.6999L139.4 296.9L135.3 294H137.6H152.9Z" fill="#271624"/>
<path d="M49.7999 296.2L72.2999 290.6L155.4 283.3L199.4 285.3L122.3 290.3L123 294H135.3L109.4 303.2L47.2999 301.4L93.6999 307.6L87.7999 308.7L8.3999 302.3L49.7999 296.2Z" fill="#869827"/>
<path style="mix-blend-mode:multiply" opacity="0.3" d="M122.3 290.3L123.1 293.5L135.3 294L109.4 303.2L47.3 301.4H29.5L40.2 300.3L106 301.4L115.6 300.3L116.8 298.8L88.1 299.4L120.6 298L129.7 294.5L123 294L69.7 292.8L111.1 290.6L148.1 286.9L199.4 285.3L122.3 290.3Z" fill="url(#paint23_linear_68_1511)"/>
<path style="mix-blend-mode:multiply" opacity="0.3" d="M87.7999 308.7L8.3999 302.3L9.5999 302.1L84.3999 307.2L93.6999 307.6L87.7999 308.7Z" fill="url(#paint24_linear_68_1511)"/>
<path style="mix-blend-mode:multiply" opacity="0.5" d="M405.7 328.9L412.6 316.5L425.5 315.3V328.2L405.7 328.9Z" fill="url(#paint25_linear_68_1511)"/>
<path style="mix-blend-mode:multiply" opacity="0.5" d="M25.2 349.7V341.2L103.4 339.4V345.5L25.2 349.7Z" fill="url(#paint26_linear_68_1511)"/>
<path style="mix-blend-mode:multiply" opacity="0.5" d="M108.2 345.2L109.2 339.2L119.7 339V344.5L108.2 345.2Z" fill="url(#paint27_linear_68_1511)"/>
<path d="M72.2998 339.8L85.4998 337.4L105.6 338.6L123.8 337.4L196 337.2L72.2998 339.8Z" fill="#866D6A"/>
<path d="M103.4 308.9L100.5 312L80.1998 316.8L60.7998 320.7L65.7998 319.1L80.0998 316.5L93.2998 312.9L103.4 308.9Z" fill="#271624"/>
<path d="M14.9 335.2L30.8 337.4L57.5 340.1L4.5 342.6L14.9 335.2Z" fill="#866D6A"/>
<path d="M108.2 338.9L126.3 335.2L156.8 338L108.2 338.9Z" fill="#A59391"/>
<path d="M173.9 341.7L173.3 337.4L150.3 329.7L100.5 312L101.2 311.2L102.6 312L175.7 337.7L175.8 341.6L173.9 341.7Z" fill="#271624"/>
<g style="mix-blend-mode:soft-light">
<path d="M173.3 337.4L4.5 342.6L14.9 335.2L60.8 320.7L80.1 316.5L100.5 312L173.3 337.4Z" fill="#AA9D9F"/>
</g>
<g style="mix-blend-mode:soft-light">
<path d="M188.4 320.7L225.8 327.3L228.6 326.5L263.7 334.6L218.6 336.3L171.6 326.5L188.4 320.7Z" fill="#AA9D9F"/>
</g>
<path d="M397.6 317.8L405.7 314.1H424.6L446 313.6L397.6 317.8Z" fill="#8D7C7F"/>
<path style="mix-blend-mode:multiply" opacity="0.5" d="M329.3 274.6L345.2 278.9L334.8 278.2L329.3 274.6Z" fill="url(#paint28_linear_68_1511)"/>
<path d="M672 333.9L681.9 343.4L668.9 340.4L672 333.9Z" fill="#8D7C7F"/>
<path d="M541.3 313.6L552.8 317.8C541.333 319.733 533.5 320.533 529.3 320.2C525.1 319.933 517.733 319.533 507.2 319L541.3 313.6Z" fill="#8D7C7F"/>
<path d="M416.6 361.3L440.4 356.2L435.5 361.3H416.6Z" fill="#8D7C7F"/>
<path style="mix-blend-mode:multiply" opacity="0.8" d="M140.5 325.3L148.7 327.4L170.5 331.1L176.2 337.7L176.3 341.6H175.8L175.7 337.7L140.5 325.3Z" fill="url(#paint29_linear_68_1511)"/>
<g style="mix-blend-mode:soft-light">
<path d="M148.7 327.4L140.5 325.3L155.2 323.9L180 329.7L170.5 331.1L148.7 327.4Z" fill="#AA9D9F"/>
</g>
<path d="M168.2 330.7L174 330.6L173.3 334.3L168.2 330.7Z" fill="#8D7C7F"/>
<path d="M432.9 289L446.6 283.2L438.8 278.2L415.2 263.4L416.6 263.3L419.4 265.6L442.7 280.1L452.2 284.2L451.8 285L443.3 285.6L437.5 287.8L437.1 289.4L432.9 289Z" fill="#271624"/>
<path d="M543.3 288V282.3L521.8 269.6H523.2L544.3 282.1V287.6L543.3 288Z" fill="#271624"/>
<g style="mix-blend-mode:soft-light">
<path d="M523.2 269.6L528.5 270.1L561 277.3L559.7 278.9L544.3 282.1L523.2 269.6Z" fill="#725C60"/>
</g>
<path d="M541.1 280.2L548.4 281.3L544.3 284.3V282.1L541.1 280.2Z" fill="#8D7C7F"/>
<path style="mix-blend-mode:multiply" opacity="0.8" d="M490.7 294.1V291.6H499L497.6 303L493.9 294.1H490.7Z" fill="url(#paint30_linear_68_1511)"/>
<path style="mix-blend-mode:multiply" opacity="0.8" d="M309.9 281.9L311.2 277L332.3 273.4L329.3 270.4L321.6 270L325.1 267.8H360.6L329.3 274.6L326.6 281.9H309.9Z" fill="url(#paint31_linear_68_1511)"/>
<path d="M371.6 280.7H385.2H399.2L415.2 282.7H397.6L371.6 280.7Z" fill="#8D7C7F"/>
<path d="M205.2 337.1L225.6 335.2L246 333.5L266.7 334.3L289.8 329.7L322.1 327.5L282 333.1L243.1 336.2L205.2 337.1Z" fill="#8D7C7F"/>
<path d="M853.6 344.9L863.1 336.8L884 323.9L875.1 333.9L866.2 341.7L853.6 344.9Z" fill="#766165"/>
<path d="M616.1 312.9L628.4 310L675.4 307.7L638.8 310.9L616.1 312.9Z" fill="#766165"/>
<g style="mix-blend-mode:soft-light">
<path d="M88.9 374L57.5 363.7L96 353.9H138.2L196 369.6L142.9 372.3L88.9 374Z" fill="#B59AA0"/>
</g>
<path d="M366.7 264.3L367.6 267.8H237.1L256.1 241.8L260 238.8L293.7 236.5C294.3 235.033 295.033 233.2 295.9 231C312.8 239.3 329.3 248.7 346.7 256.1C353.3 258.9 359.967 261.633 366.7 264.3Z" fill="url(#paint32_linear_68_1511)"/>
<path d="M332.6 260.2C292.267 257.8 271.067 256.033 269 254.9C267 253.833 263.867 249.767 259.6 242.7L260 238.8L293.7 236.5L310.1 235.6H311.2L338.9 253.7L363.6 258.6L332.6 260.2Z" fill="#A43E38"/>
<path d="M260 238.8L259.6 242.7L256.1 241.8L260 238.8Z" fill="#755559"/>
<path d="M274.5 237.8L297.1 227.9L305.3 224.8L326.9 232.7V234.4L356.1 250.8L357.2 252.8L368 256.7L395.6 263.6L366.6 265L367.3 262.6L360.7 258.1L338.9 253.7L307.6 236.5L292.4 236.7L297.3 238.8L308.1 244.9L274.5 237.8Z" fill="#869827"/>
<g style="mix-blend-mode:soft-light">
<path d="M568 253.6L506.9 254.9L416.6 252.2L467.8 243.9L568 253.6Z" fill="#B59AA0"/>
</g>
<g style="mix-blend-mode:soft-light">
<path d="M479 257.7L560.9 256.2L586.3 259.6L532.1 263.8L444.2 260.2L479 257.7Z" fill="#B59AA0"/>
</g>
<path style="mix-blend-mode:multiply" opacity="0.3" d="M326.9 234.4L312 236.4L340.3 250.8H356.1L357.2 252.8L352.1 253.8L372.7 261.5L395.6 263.6L366.6 265L367.3 262.6L360.7 258.1L338.9 253.7L307.6 236.5L292.4 236.7L285 235.6H294.9H308.8L306.4 233.7L297 231.7L317.8 234.5L326.9 232.7V234.4Z" fill="url(#paint33_linear_68_1511)"/>
<path d="M732.4 238.9L747.7 233.9L772.4 226.6L769.5 229.7L794.7 224.7L824.5 231.8L834.5 233.9L865.3 238.6L894.7 231.8V241.8L732.4 238.9Z" fill="#758127"/>
<path d="M274.5 237.8L259.6 242.7L256.1 241.8L260 238.8L274.5 237.8Z" fill="#E09C6F"/>
<path d="M297.1 227.9L280.7 237.8H274.5L297.1 227.9Z" fill="#E09C6F"/>
<path d="M245.3 267.9L118.5 286.5L103.9 287.8L237.1 267.8L245.3 267.9Z" fill="#E09C6F"/>
<path d="M155.4 283.3L148.1 286.9L69.6999 292.8L79.3999 293L46.0999 300.4L40.1999 300.3L8.3999 302.3L49.7999 296.2L71.0999 290.6L155.4 283.3Z" fill="#99AD2D"/>
<path d="M234 290.6L322.1 305.8L316.3 307.6L228 301.4L158.7 292.3L234 290.6Z" fill="#869827"/>
<path d="M761.4 259.6L859.7 257.7L894.7 255.8L878.8 259.6H891.9L878.8 267.8L775.9 270.1L783.2 269.3H746.1L801.2 260.6L761.4 259.6Z" fill="#758127"/>
<path d="M874.7 253.4H718L670.7 249.4L874.7 253.4Z" fill="#758127"/>
<path d="M917.3 282.5L908.4 284.3L940.4 287.8L852.6 288.2L917.3 282.5Z" fill="#758127"/>
<path style="mix-blend-mode:multiply" opacity="0.5" d="M894.7 241.8L732.4 238.9L757.5 236.5L772.4 226.6L769.5 229.7L764.5 236.8L811.8 235.2L794.7 224.7L865.3 238.6L871.3 240.3L891.9 238L894.7 231.8V241.8Z" fill="url(#paint34_linear_68_1511)"/>
<path d="M722.9 340.1L741.4 341.7L753.7 344.3L755.1 348.4H746.1L722.9 340.1Z" fill="#AABDF9"/>
<path d="M716.9 332.9L724 330.5L732.4 332.5L716.9 332.9Z" fill="#AABDF9"/>
<path style="mix-blend-mode:screen" opacity="0.3" d="M641.1 329.6C642.2 332.6 637.9 337 631.6 339.4C625.2 341.8 619.1 341.3 618 338.2C616.8 335.2 621.1 330.8 627.5 328.5C633.8 326.1 639.9 326.6 641.1 329.6Z" fill="url(#paint35_radial_68_1511)"/>
<path style="mix-blend-mode:multiply" d="M1003.5 374H0.5L3.4 327.4L315.9 328.4L318.6 336.4L457.8 336L465.9 329.5L546.6 333.3L575.9 328.1L623.7 332.5L669.6 320.2L900 304.9L913.3 311L1003.5 291.4V374Z" fill="url(#paint36_linear_68_1511)"/>
<g style="mix-blend-mode:multiply">
<path d="M824.3 314.6L779.1 283.5L753.7 271.1L762.5 270.6L789 274.3L888.1 314.6L896 311.6L826.4 277.2L812.3 265.9L816 265.6L850 271.5L1001.6 314.6H824.3Z" fill="#AB9DBD"/>
</g>
<path d="M833.6 144.3C833 144.167 832.4 144.233 831.8 144.5C830.9 144.9 829.9 147.5 828 147.4C827.1 147.2 826.8 146.8 826.6 146C827.667 145.467 828.7 144.2 829.7 142.2C831.1 139.1 832.2 137.4 834.8 138C834.733 140.933 834.333 143.033 833.6 144.3Z" fill="#90404F"/>
<path d="M835.3 158.4L831.7 161.1C830.7 160.633 830.067 159.733 829.8 158.4C829.4 156.3 830.6 153.1 832.2 150.7L832.5 148.9C831.767 150.1 831.133 151.1 830.6 151.9C830.133 152.633 829.3 153.667 828.1 155C827.1 152.933 827.533 150.9 829.4 148.9C832 147.567 833.633 145.333 834.3 142.2L837 143.2L837.6 152.1L835.3 158.4Z" fill="#90404F"/>
<path d="M835.8 148.7C835.066 146.9 834.767 145.4 834.9 144.2L834.3 142.1C836.033 140.3 837.266 137.8 838 134.6C838.4 132.8 838.3 129.1 838.4 124.9C838.7 118.3 839.5 110.3 843.8 104.7L836.3 91C843.3 89.5333 849.066 89.5333 853.6 91L856.5 102C856.1 104.733 855.3 108 854.1 111.8C853.3 114.5 852.3 117.5 850.9 120.6C846.7 130.5 842 139.3 841 142.9C840 146.6 839.9 154.8 839.3 155.7C838.9 156.233 837.333 157.733 834.6 160.2C833.6 158.333 834.233 156.3 836.5 154.1C836.7 152.367 836.466 150.567 835.8 148.7Z" fill="url(#paint37_linear_68_1511)"/>
<path d="M771.6 237.3C772.9 235 775.8 217.7 775.5 210.2C775.233 205.2 774.767 200.1 774.1 194.9C773.967 183.1 775.633 165.933 779.1 143.4C779 143.2 776.8 139.9 776.8 139.6C776.867 139.467 777.633 139.067 779.1 138.4L828.8 143.7C828.4 155.6 831.5 185.2 833.4 190.3C835.3 195.3 841.1 202.6 846.5 210.6C851.8 218.5 851.3 224.4 851.5 226.2C851.7 228 852.8 231.3 853.6 231.8C853.667 231.8 853.733 231.8 853.8 231.8C854.7 232.3 857 232.7 857.2 233.8C857.267 234 857.233 234.267 857.1 234.6C856.767 235.733 855.9 237.4 854.5 239.6C855.767 239.867 856.367 240.267 856.3 240.8C856.1 241.5 852.2 244.7 846.6 244.7C842.867 244.7 837.767 243.433 831.3 240.9V239.3L831.2 239.2C831 238.8 829 235.2 828.5 233.3C828.367 232.9 828.3 232.6 828.3 232.4C828.433 231.467 829.433 229.8 831.3 227.4C828.9 213.9 822 204.8 820 202.3C818.6 200.633 817.433 198.367 816.5 195.5C813.9 190.033 811.267 175.067 808.6 150.6C803.8 150.6 800 153.9 799.8 154.1C796.8 159.8 790.6 193.8 790.6 196.8C790.6 199.7 792.4 211.4 793.7 218.6C794.633 223.467 794.667 228.567 793.8 233.9C794.333 234.1 794.567 234.467 794.5 235C794.5 235.8 792.9 239 792.7 239.4V239.5C794.9 239.5 796.133 239.733 796.4 240.2V240.3C796.533 240.967 795.267 243.433 792.6 247.7C788.2 249.833 784.767 250.867 782.3 250.8C779.833 250.667 775.3 248.833 768.7 245.3C767.433 243.633 766.833 242.567 766.9 242.1C767.1 241.5 770.4 239.6 771.6 237.3Z" fill="url(#paint38_linear_68_1511)"/>
<g style="mix-blend-mode:multiply">
<path d="M767 242.1C773.6 240.7 777.4 239.667 778.4 239C782.133 236.4 783.633 227.567 782.9 212.5L779.1 199.5C777.033 189.367 778.6 172.7 783.8 149.5L779.1 143.4C779 143.2 776.9 139.9 776.9 139.6C776.9 139.467 777.633 139.067 779.1 138.4L828.8 143.7C828.4 155.6 831.5 185.2 833.4 190.3C835.3 195.3 841.2 202.6 846.5 210.6C851.8 218.5 851.3 224.4 851.5 226.2C851.7 228 852.8 231.3 853.6 231.8C853.667 231.8 853.7 231.8 853.7 231.8C852.5 233.2 850.933 234.833 849 236.7C852.4 236.7 855.4 235.5 857.1 234.6C856.767 235.8 855.9 237.467 854.5 239.6C855.767 239.867 856.367 240.267 856.3 240.8C856.1 241.5 852.2 244.7 846.6 244.7C842.867 244.7 837.767 243.433 831.3 240.9V239.3C829.833 236.633 828.9 234.633 828.5 233.3L828.4 232.4C830.533 233.467 834.4 234.1 840 234.3C838.6 223.567 837.367 217.067 836.3 214.8C834.8 211.5 824 199.5 822.3 198.8C821.233 198.267 819.667 184.4 817.6 157.2L808.6 150.6C805.267 150.6 802.333 151.767 799.8 154.1C796.8 159.8 790.6 193.8 790.6 196.8C790.6 199.7 792.4 211.4 793.7 218.6C794.633 223.467 794.667 228.567 793.8 233.9C794.333 234.1 794.567 234.467 794.5 235C794.5 235.8 792.9 239 792.7 239.4V239.5C789.967 241.033 786.233 242.2 781.5 243C787.5 242.867 792.467 241.933 796.4 240.2V240.3C796.533 240.967 795.267 243.433 792.6 247.7C788.2 249.833 784.767 250.867 782.3 250.8C779.833 250.667 775.3 248.833 768.7 245.3C767.433 243.633 766.867 242.567 767 242.1Z" fill="#543160"/>
</g>
<path d="M754.3 269.7L764.5 270.1L788.3 271.1L788.5 271.7L789 274.3C783.733 275.767 777.667 275.767 770.8 274.3C770.267 273.233 769.767 272.6 769.3 272.4C768.833 272.2 768.367 272.2 767.9 272.4L766.4 273C761.467 273.533 757.233 272.9 753.7 271.1L754.3 269.7Z" fill="url(#paint39_linear_68_1511)"/>
<path d="M813.2 264.7L827.1 267.1H827.2L850 271V274.6C842.733 275.733 836.933 275.733 832.6 274.6C832.266 274 832.066 273.533 832 273.2C832 272.7 831.2 271.1 830.5 270.8C830.2 270.7 829.2 270.7 827.9 270.7C826 270.7 823.5 270.7 820.9 270.4C817.9 270.067 815.033 268.567 812.3 265.9L813.2 264.7Z" fill="url(#paint40_linear_68_1511)"/>
<path d="M815 258.9C815.9 258.3 822.9 258.8 825.7 258.1C826.7 257.9 827.5 257.5 828.2 256.9C828.467 256.7 828.733 256.5 829 256.3C829.533 255.833 829.967 255.367 830.3 254.9C832.833 255.233 835.567 255.667 838.5 256.2C842.8 256.9 847.5 257.9 849.3 258.9C849.5 259.967 849.7 261.133 849.9 262.4C850.4 265 850.9 268.2 850.9 269C850.9 269.867 850.6 270.7 850 271.5C844 272.767 838.3 272.833 832.9 271.7L831 270.1L829.2 269.4C822.6 269.667 817.267 268.1 813.2 264.7C813.8 261.233 814.4 259.3 815 258.9Z" fill="url(#paint41_linear_68_1511)"/>
<path d="M757.8 260C761 260 763.7 259.5 765.9 258.5C766.233 258.3 766.533 258.133 766.8 258C766.867 257.933 766.933 257.9 767 257.9C778.533 260.5 785.333 262.3 787.4 263.3C787.533 263.433 787.633 263.667 787.7 264C788.4 265.5 789.7 268.9 789.7 269.5C789.7 269.967 789.3 270.7 788.5 271.7C781.767 272.7 775.7 272.7 770.3 271.7L769.4 271.1C767.867 271.3 765.767 271.467 763.1 271.6C759.7 271.7 755.4 270.1 754.5 269.7C754.433 269.7 754.367 269.7 754.3 269.7C754.033 265.767 755.2 262.533 757.8 260Z" fill="url(#paint42_linear_68_1511)"/>
<path d="M829.7 249.8C829.9 249 829.9 246 829.9 243.6V240.4L831.3 240V240.9C837.167 243.233 841.6 244.433 844.6 244.5C845.9 244.5 847.1 244.4 848.2 244.2H848.3C850.1 244 851.667 243.667 853 243.2C854.333 244 855.033 244.5 855.1 244.7C855.2 245 852.9 248.5 853 253.8C853.133 257.267 853.5 259.5 854.1 260.5C853.167 261.233 851.767 261.867 849.9 262.4C848.5 262.8 846.6 263.2 844.3 263.2C839.4 263.3 832.4 258.8 829 256.4C829 256.4 829 256.367 829 256.3C828.2 255.767 827.6 255.333 827.2 255C828.733 252.467 829.567 250.733 829.7 249.8Z" fill="url(#paint43_linear_68_1511)"/>
<path d="M768.4 247.4C768.6 246.6 768.7 245.9 768.7 245.3H768.8C769.2 245.5 774.6 248.1 778.7 249.5H778.8C780.1 249.9 781.4 250.3 782.2 250.3C784.533 250.433 788 249.567 792.6 247.7L793.8 249.3C792 251.567 790.967 253.667 790.7 255.6C790.367 257.6 790.533 259.9 791.2 262.5C790.333 262.967 789.167 263.467 787.7 264C785.2 264.9 781.5 265.8 777.9 265.5C772.9 265.1 768.6 260.3 766.8 258C766.4 257.467 766.1 257 765.9 256.6C767.033 253.067 767.867 250 768.4 247.4Z" fill="url(#paint44_linear_68_1511)"/>
<path style="mix-blend-mode:multiply" opacity="0.6" d="M828.8 143.7L814 148.7L818.3 149.7L808.6 150.6C803.8 150.6 800 153.9 799.8 154.1L796 145.6L779.1 138.4L774.4 131.6L828.8 143.7Z" fill="url(#paint45_linear_68_1511)"/>
<g style="mix-blend-mode:multiply">
<path d="M813.2 264.7C813.7 265 817.8 267.3 827.1 267.1H827.2L829.4 260.4L828.7 257.9L828.2 256.9L829 256.4L829.1 256.3C832.5 258.167 836.067 259.733 839.8 261L838.5 256.2L837.6 252.9L829.9 243.6V240.4L832.8 243.7C837.1 245.3 840.1 245.5 844.7 245.3L846.6 244.7L848.2 244.2H848.3C850.1 244 851.667 243.667 853 243.2C854.333 244 855.033 244.5 855.1 244.7C855.2 245 852.9 248.5 853 253.8C853.133 257.267 853.5 259.5 854.1 260.5C853.167 261.233 851.767 261.867 849.9 262.4C850.4 265 850.9 268.2 850.9 269C850.9 269.867 850.6 270.7 850 271.5V274.6C842.733 275.733 836.933 275.733 832.6 274.6C832.267 274 832.067 273.533 832 273.2C832 272.7 831.2 271.1 830.5 270.8C830.2 270.7 829.2 270.7 827.9 270.7L827.2 270C820.333 269.333 815.667 267.567 813.2 264.7Z" fill="#543160"/>
</g>
<g style="mix-blend-mode:multiply">
<path d="M754.5 269.7C756.233 270.367 758.9 270.667 762.5 270.6L764.5 270.1L769.4 268.8L770 265.1L765.9 258.5C766.233 258.3 766.533 258.133 766.8 258C766.4 257.467 766.1 257 765.9 256.6C767.033 253.067 767.867 250 768.4 247.4L778.7 249.5H778.8C780.1 249.9 781.4 250.3 782.2 250.3C784.533 250.433 788 249.567 792.6 247.7L793.8 249.3C792 251.567 790.966 253.667 790.7 255.6C790.366 257.6 790.533 259.9 791.2 262.5C790.333 262.967 789.166 263.467 787.7 264C788.4 265.5 789.7 268.9 789.7 269.5C789.7 269.967 789.3 270.7 788.5 271.7L789 274.3C783.733 275.767 777.666 275.767 770.8 274.3C770.266 273.233 769.766 272.6 769.3 272.4C768.833 272.2 768.367 272.2 767.9 272.4L766.4 273C756.8 272.4 754.4 269.8 754.3 269.7C754.366 269.7 754.433 269.7 754.5 269.7Z" fill="#543160"/>
</g>
<path style="mix-blend-mode:multiply" opacity="0.6" d="M844.5 237.4C851.1 237.067 855.3 236.133 857.1 234.6C856.767 235.733 855.9 237.4 854.5 239.6C852.833 240.2 849.733 240.933 845.2 241.8C850.267 242.267 853.967 241.933 856.3 240.8C856.1 241.5 852.2 244.7 846.6 244.7C842.867 244.7 837.767 243.433 831.3 240.9V239.3L831.2 239.2L828.5 233.3C828.9 233.5 834.9 237.8 844.5 237.4Z" fill="url(#paint46_linear_68_1511)"/>
<path style="mix-blend-mode:multiply" opacity="0.6" d="M782.8 244.2C788.467 243.8 793 242.467 796.4 240.2V240.3C796.533 240.967 795.267 243.433 792.6 247.7C788.2 249.833 784.767 250.867 782.3 250.8C779.833 250.667 775.3 248.833 768.7 245.3C767.433 243.633 766.833 242.567 766.9 242.1C771.767 243.9 777.067 244.6 782.8 244.2Z" fill="url(#paint47_linear_68_1511)"/>
<g style="mix-blend-mode:soft-light">
<path d="M771.6 237.3C775.933 236.7 779.167 235.533 781.3 233.8C780.5 236.067 779.2 237.8 777.4 239C775.6 240.2 772.1 241.233 766.9 242.1C768.767 240.567 770.333 238.967 771.6 237.3Z" fill="#E0FFFF"/>
</g>
<g style="mix-blend-mode:soft-light">
<path d="M831.3 227.4L832 228.8C832.867 231.6 835.533 233.433 840 234.3C835.8 234.433 831.933 233.8 828.4 232.4C828.8 231.133 829.767 229.467 831.3 227.4Z" fill="#E0FFFF"/>
</g>
<g style="mix-blend-mode:soft-light">
<path d="M779.1 143.4L783.8 149.5C779.933 156.1 776.7 171.233 774.1 194.9C774.1 183.033 775.767 165.867 779.1 143.4Z" fill="#E0FFFF"/>
</g>
<g style="mix-blend-mode:soft-light">
<path d="M817.6 157.2C815.133 173 815.467 187.333 818.6 200.2C814.8 195.933 811.467 179.4 808.6 150.6L817.6 157.2Z" fill="#E0FFFF"/>
</g>
<path style="mix-blend-mode:multiply" opacity="0.3" d="M836.3 196.7C831.5 197.767 826.666 197.967 821.8 197.3L832 196.1L834.2 192.6L836.3 196.7Z" fill="url(#paint48_linear_68_1511)"/>
<path style="mix-blend-mode:multiply" opacity="0.3" d="M790.6 199.6L788.6 201.2C784.333 199.867 781.133 198.033 779 195.7C781.667 196.967 784.767 197.833 788.3 198.3L790.6 196.8V199.6Z" fill="url(#paint49_linear_68_1511)"/>
<g style="mix-blend-mode:multiply" opacity="0.5">
<path d="M836.3 91C843.3 89.5333 849.066 89.5333 853.6 91L856.5 102C856.1 104.733 855.3 108 854.1 111.8L838.4 124.9C838.7 118.3 839.5 110.3 843.8 104.7L836.3 91Z" fill="#9A5459"/>
</g>
<path d="M722.1 76.5L714.3 71.4L711.8 69.5L723.1 69.1L725.8 73.6L722.1 76.5Z" fill="#CC5268"/>
<path d="M679.6 70.2C680.8 68.4 684.2 63.4 688 60.3C690 58.9 691.7 57.6333 693.1 56.5C693.9 55.9 694.5 55.3 694.8 54.9C695.8 53.4 733.1 35.5 736.3 36.1C738.1 36.5 742 40.3 746.4 45.3L746.6 45.4C752.8 52.4667 759.833 61.3 767.7 71.9L755.3 95.9L744.6 95C734 81.3333 727.733 74.2 725.8 73.6C714.867 70 707.767 67.9 704.5 67.3C699.6 66.4 690.8 65.4 690.1 65.6L689.7 65.8C687.6 66.8 679.7 70.7 679.2 70.9C679.267 70.8333 679.4 70.6 679.6 70.2Z" fill="url(#paint50_linear_68_1511)"/>
<g style="mix-blend-mode:multiply" opacity="0.2">
<path d="M732.7 62.3L753.6 67L745.4 67.8L754.5 84.6L751.8 90.5L731.4 80.6L730.5 67.8L732.7 62.3Z" fill="#CF7A79"/>
</g>
<path d="M753.7 106.3C746.633 104.3 741.7 101.767 738.9 98.7C736.167 95.7 733.933 91.3 732.2 85.5L729.1 82.3C723.566 79.1667 719.5 76.8334 716.9 75.3C714.233 73.8334 712.533 71.9 711.8 69.5C713.266 71.1667 716 72.6333 720 73.9C722.7 74.7 721.8 74 725.8 73.6C727.866 72.4 728.933 71.5333 729 71C729.1 70.2 727.5 65.6 728.4 64C729 62.9333 729.733 62.1667 730.6 61.7C731.533 61.7 732.233 61.9 732.7 62.3C731.766 66.2334 731.566 68.9 732.1 70.3C733 72.3 734.8 74 735 74.8C735.133 75.3334 735.066 76.7333 734.8 79C737.6 84.7333 742.833 87.1 750.5 86.1C754.7 85.5 755.2 103.1 753.7 106.3Z" fill="url(#paint51_linear_68_1511)"/>
<path d="M773 82.7C773.9 84.1 774.5 85.3 774.9 86.2C775.2 87 775.4 87.5 775.4 87.6C775.467 87.6 775.5 87.6 775.5 87.6C774.967 87.6667 774.467 87.6667 774 87.6C767.6 87.2 762 80.1 759 75.5C757.6 73.3 756.8 71.7 756.8 71.6C756.733 71.6 756.7 71.6 756.7 71.6C765.1 72.1 770.3 78.2 773 82.7Z" fill="#988100"/>
<path d="M751.5 86.4C753.1 84.6667 754.433 82.9333 755.5 81.2C755.9 80.6 756.3 79.9 756.8 79.1C757.5 77.9 758.4 76.6 759 75.5C759.6 74.6 760.1 73.8 760.2 73.5C760.267 73.4333 760.333 73.3667 760.4 73.3C764 74 769.8 79.4 773 82.7C774 83.7 774.833 84.5333 775.5 85.2C775.367 85.4667 775.167 85.8 774.9 86.2C774.833 86.3333 774.767 86.4667 774.7 86.6C774.5 86.8667 774.267 87.2 774 87.6C772.9 89.5 771 92.4 768.8 95.3C766.1 99 761.9 102.5 758.5 104.6C756.1 106 754.1 106.7 753.3 106C751.9 105 751.3 98.4667 751.5 86.4Z" fill="url(#paint52_linear_68_1511)"/>
<path d="M763.1 63.2C764.433 60.0667 767.667 55.8667 772.8 50.6C774.333 49.1334 776.9 48.2334 780.5 47.9L780 82.4L775.5 87.6C775.5 87.6 775.467 87.6 775.4 87.6C775.2 87.2667 774.967 86.9334 774.7 86.6C769.9 80 763.9 75.7 760.2 73.5C758.2 72.3 756.9 71.7 756.8 71.6C756.733 71.6 756.7 71.6 756.7 71.6C759.833 68.6667 761.967 65.8667 763.1 63.2Z" fill="url(#paint53_radial_68_1511)"/>
<g style="mix-blend-mode:multiply" opacity="0.5">
<path d="M756.7 71.6C759.833 68.6667 761.967 65.8667 763.1 63.2C764.433 60.0667 767.667 55.8667 772.8 50.6C774.333 49.1334 776.9 48.2334 780.5 47.9L780 82.4L775.5 87.6C774.967 87.6667 774.467 87.6667 774 87.6C772.9 89.5 771 92.4 768.8 95.3C766.1 99 761.9 102.5 758.5 104.6L756.8 79.1C757.5 77.9 758.4 76.6 759 75.5C757.6 73.3 756.8 71.7 756.8 71.6C756.733 71.6 756.7 71.6 756.7 71.6Z" fill="#9A5459"/>
</g>
<path d="M734.8 79L735.4 79.6L737 79C739.4 80.0667 742.733 81.2 747 82.4L749.1 78.5L750.7 79.9C753.167 75.4333 755.733 71.0333 758.4 66.7C761.9 60.9 765.7 55.2 767.3 54.8C769.5 54.1333 775 53.9333 783.8 54.2C790.267 68.0667 790.267 81.0334 783.8 93.1C774.1 111.2 752.2 116.7 743.3 109.7C735.9 103.9 732.3 91.3 731.3 87.3C731.3 87.2333 731.3 87.1667 731.3 87.1C731.167 86.5 731.067 86.1333 731 86L730 84.7C730.8 81.2333 732.4 79.3333 734.8 79Z" fill="url(#paint54_linear_68_1511)"/>
<path d="M785.6 31.6C786 27.7 787.2 26.2 787.8 24.9C787.933 24.6333 788.033 24.3333 788.1 24C788.4 22.7 788.5 20.6 788.6 19.5C788.6 19.2333 788.6 19 788.6 18.8L792.7 17.6L808.6 37.5L810.7 40.1C810.6 41 810.6 42 810.7 43C810.9 45.2 811.4 47.4333 812.2 49.7C807 47.3667 800.267 45.9667 792 45.5C792.2 44.8333 792.333 44.1 792.4 43.3C791.133 43.5667 790.167 43.4667 789.5 43C788.5 42.3 785.3 35.5 785.6 31.6Z" fill="url(#paint55_linear_68_1511)"/>
<path d="M785 19C785.2 18.9 787.4 17.5 791.1 16.4C791.5 16.2667 791.933 16.1667 792.4 16.1C794.4 15.6 796.7 15.3 799.4 15.3C801.3 15.3 803.3 15.4 805.2 15.6C813.6 16.5 820.7 18.9 821.1 19.1H821.2C821.3 19.4 821.6 20.1 822.3 21.1C823 22.2 824 23.5 825.4 24.8C825.2 24.7 822.3 23.4 820.6 21.9C820.6 22.1 821.8 24.9 821.9 27.2C821.967 27.4 822 27.5667 822 27.7L820.5 27C819.7 31.4667 817.867 35.4667 815 39C813.8 40.5 812.4 41.9 810.7 43C810.433 43.2 810.167 43.3667 809.9 43.5C808.567 43.6333 807.733 44.0667 807.4 44.8C803.467 41.3334 800.533 38.0667 798.6 35C798.267 34.5333 798 34.1 797.8 33.7C796.067 30.4333 794.667 27.2 793.6 24C793.133 23.6667 792.567 23.6334 791.9 23.9C791.6 24 791.4 24.3 791.2 24.7C790.733 25.3667 790.367 26.2667 790.1 27.4C790.1 27.0667 790.1 26.6 790.1 26C789.9 24 789.6 20.2 788.6 18.8V19.5L785 19Z" fill="url(#paint56_linear_68_1511)"/>
<g style="mix-blend-mode:multiply" opacity="0.5">
<path d="M785 19L791.1 16.4L791.8 16.1H792.4L805.2 15.6C813.6 16.5 820.7 18.9 821.1 19.1H821.2L822.3 21.1L813.4 19L798.3 17.6L808.1 24L821.9 27.2C821.967 27.4 822 27.5667 822 27.7L820.5 27C819.7 31.4667 817.867 35.4667 815 39L808.6 37.5L798.6 35L793.4 33.7C794.067 30.5 793.733 27.5333 792.4 24.8L791.2 24.7L790.2 26.2L790.1 26L788.1 24C788.4 22.7 788.5 20.6 788.6 19.5L785 19Z" fill="#9A5459"/>
</g>
<g style="mix-blend-mode:multiply" opacity="0.5">
<path d="M791.4 27.7L791.7 26.1L792.3 29.3L791.7 32.9L791.4 27.7Z" fill="#9A5459"/>
</g>
<path d="M785.6 11.1L786.8 10.2C791.6 3.2 797.2 -0.133329 803.6 0.200004C811.3 0.500004 817.9 5.60001 822.1 13.1C823.167 14.9 824.067 16.8667 824.8 19C827.267 26 825.933 31.1 820.8 34.3L821.1 36.8C820.633 38.4 818.267 39.5333 814 40.2C808.4 40.6 802.867 38.7667 797.4 34.7C793.8 32 791 28.6 788.9 25.7C787.233 23.2333 785.933 21 785 19C784.867 15.5333 785.067 12.9 785.6 11.1Z" fill="url(#paint57_radial_68_1511)"/>
<path style="mix-blend-mode:multiply" opacity="0.8" d="M786.8 12.7C796.8 6.76668 804.467 4.23335 809.8 5.10001C815.067 5.90001 818.6 7.90001 820.4 11.1L822.1 13.1C823.167 14.9 824.067 16.8667 824.8 19C827.267 26 825.933 31.1 820.8 34.3L821.1 36.8C820.633 38.4 818.267 39.5333 814 40.2C808.4 40.6 802.867 38.7667 797.4 34.7C793.8 32 791 28.6 788.9 25.7L786.1 12.3L786.8 12.7Z" fill="url(#paint58_linear_68_1511)"/>
<g style="mix-blend-mode:multiply">
<path d="M746.6 107.2C754.8 107.3 768 93.1 766.1 81.3C764.3 70.6 759.3 67.3 758.4 66.7C761.9 60.9 765.7 55.2 767.3 54.8C769.5 54.1333 775 53.9333 783.8 54.2C790.266 68.0667 790.266 81.0334 783.8 93.1C774.1 111.2 752.2 116.7 743.3 109.7C735.9 103.9 732.3 91.3 731.3 87.3C732.7 91.9 739.3 107.1 746.6 107.2Z" fill="#543160"/>
</g>
<path d="M776.9 27.1C783.6 30.1 803 36.9 817.9 38.1C832.9 39.3 848.8 36.4 855 37C858.133 38.7333 860.1 40.9333 860.9 43.6C861.5 45.8 861.9 49.9 860.9 53.9C860.6 55.1 860.1 56.4 859.5 57.6C856.7 62.5 850.7 65.6 849 65.3C847.4 65.1 829.7 56.8 812.2 54.3C795.6 52 776.2 56.4 774.3 56.8C774.233 56.8667 774.167 56.9 774.1 56.9L767.2 22.5C769.2 23.5667 772.433 25.1 776.9 27.1Z" fill="url(#paint59_linear_68_1511)"/>
<path d="M785 30.3L784.4 30.1L784.7 28.9L789.5 30.1C797.233 36.3 798.5 44.2667 793.3 54L788.2 54.5C793.3 54 797.4 35.4 785 30.3Z" fill="url(#paint60_linear_68_1511)"/>
<path d="M824.8 38.4L825.4 37.4L828.3 37.5C832.033 41.7667 832.333 48.6667 829.2 58.2L825.4 57.1C828.2 50.6333 828.2 44.4 825.4 38.4H824.8Z" fill="url(#paint61_linear_68_1511)"/>
<path style="mix-blend-mode:multiply" opacity="0.5" d="M780 42.9C782.933 40.8333 786.9 39.8333 791.9 39.9C806.967 40.3667 821.666 41.7 836 43.9C856.9 47.1 860.7 53.6 860.9 53.9C860.6 55.1 860.1 56.4 859.5 57.6C856.7 62.5 850.7 65.6 849 65.3C847.4 65.1 829.7 56.8 812.2 54.3C795.6 52 776.2 56.4 774.3 56.8L780 42.9Z" fill="url(#paint62_linear_68_1511)"/>
<path d="M756.6 40.6C755 36.6 754.7 30.7 756.7 26.8C758.7 22.8 765 21.6 767.2 22.5C768.7 23.1 778.9 28.1 779.9 38.6C780.9 49.7 776.1 55.9 774.1 56.9C772.1 57.8 767.4 57.8 765.5 56.9C764.233 56.3 761.9 53.7667 758.5 49.3C758.833 48.3 759.6 47.5667 760.8 47.1C759.067 45.3667 757.667 43.2 756.6 40.6Z" fill="url(#paint63_linear_68_1511)"/>
<path style="mix-blend-mode:multiply" opacity="0.5" d="M760.8 47.1L762.3 47.9C764.633 50.2333 766.467 51.5 767.8 51.7C769.7 51.9 774.2 50.3 775.5 47.1C776.7 43.8 775.7 34.5 774 31.4C772.3 28.3 768.3 26.3 767.2 26.1C765 25.8 760.2 26.3 759.4 28.5C758.6 30.7 759 38.1 760.9 41.7C762.8 45.3 766.4 46.6 767.5 46.6C768.6 46.6 772.2 44.2 772.6 41.6C773 38.9 770.3 30.4 767.5 29.5C764.7 28.7 762.4 30.1 762 31.1C761.6 32.2 762.1 39.3 763.3 40.6C764.6 42.1 767.2 41.6 767.8 40.9C768.133 40.5 767.733 37.8333 766.6 32.9L765.3 32.2L767.2 32.6L768.6 32.2L767.5 33.4C768.367 38.4667 768.733 41.2 768.6 41.6C768.4 42.1 764 42.2 762.8 41C761.6 39.9 761.1 32.2 761.3 30.7C761.5 29.2 765.8 28.2 767.8 28.9C771.1 30.1 773.7 38.7 773.6 41.6C773.4 45.6 769.7 48.5 767.5 48.6C765.3 48.8 761.6 44.5 760.1 42C758.7 39.6 757.9 30 759 27.6C760.1 25.2 764.3 24.5 767.2 24.9C768.8 25.1 772.8 28 774.9 31.1C777 34.2 777.6 43.9 776 47.6C774.8 50.3 771.3 53.1 767.5 52.8C765.033 52.5333 762.633 50.7 760.3 47.3L760.8 47.1Z" fill="url(#paint64_linear_68_1511)"/>
<path d="M767.5 33.4C768.233 35.4667 768.6 38.2 768.6 41.6C767.867 41.9333 767.2 41.9 766.6 41.5C765.667 38.1667 765.667 35.3 766.6 32.9L767.5 33.4Z" fill="url(#paint65_linear_68_1511)"/>
<path style="mix-blend-mode:multiply" opacity="0.5" d="M784.7 28.9C791.9 32.9 795 38.5 794 45.7L793.2 45.6C794.2 38 791.267 32.8333 784.4 30.1L784.7 28.9Z" fill="url(#paint66_linear_68_1511)"/>
<path style="mix-blend-mode:multiply" opacity="0.5" d="M824.8 38.4L825.4 37.4C828.267 40.2 828.866 45.8 827.2 54.2L826.4 53.9C828.133 49.3 827.8 44.1333 825.4 38.4H824.8Z" fill="url(#paint67_linear_68_1511)"/>
<g style="mix-blend-mode:multiply">
<path d="M734.8 79L735.4 79.6C732.533 82.9333 731.067 85.0667 731 86L730 84.7C730.8 81.2333 732.4 79.3333 734.8 79Z" fill="#543160"/>
</g>
<path d="M842.1 101.5L851.4 83.4C856.267 88.2 859 94.2333 859.6 101.5C860.5 112.4 853.7 133 848.7 138.1C845.367 141.5 843.033 142.867 841.7 142.2L840.9 143.4C838.967 143.4 837.633 142.767 836.9 141.5L842.1 101.5Z" fill="#150818"/>
<g style="mix-blend-mode:multiply">
<path d="M750.7 79.9C748.3 85.7667 748.033 91.1 749.9 95.9C746.5 92.3 746.233 86.5 749.1 78.5L750.7 79.9Z" fill="#543160"/>
</g>
<path d="M780.8 49.7C786.133 45.8333 790.567 43.3 794.1 42.1C794.833 41.9 795.467 41.7667 796 41.7C796.8 41.6 798.1 41.6 799.9 41.6C810 41.7 834.4 43.7 849.5 49.7C857.567 65.3667 857.433 84.8 849.1 108L846.1 109.3C843.967 122.167 840.467 133.8 835.6 144.2C826.867 144.667 817 144.467 806 143.6C805.733 143.533 805.5 143.5 805.3 143.5C800.8 143.1 796.1 142.6 791.4 141.9C791.2 141.9 791 141.867 790.8 141.8C790.667 141.8 790.533 141.8 790.4 141.8C790.333 141.733 790.233 141.7 790.1 141.7C789.967 141.7 789.867 141.7 789.8 141.7L789.7 141.6H789.6C789.1 141.4 787.6 140.6 785.9 139.7C785.833 139.633 785.767 139.567 785.7 139.5C783.4 138.3 780.7 136.6 779.1 135.1C779.3 83.7 779.867 55.2333 780.8 49.7Z" fill="url(#paint68_linear_68_1511)"/>
<path style="mix-blend-mode:multiply" opacity="0.5" d="M799.9 41.6L816.9 53.9L798.9 104C800.3 73.7333 799.333 52.9667 796 41.7C796.8 41.6 798.1 41.6 799.9 41.6Z" fill="url(#paint69_linear_68_1511)"/>
<path d="M849.1 108C831.233 109.2 815.467 108.533 801.8 106L798.9 104C804.167 79.7333 803.2 58.9667 796 41.7C812.6 40.4333 830.433 43.1 849.5 49.7C858.033 66.4333 857.9 85.8667 849.1 108Z" fill="url(#paint70_linear_68_1511)"/>
<path d="M842.1 95.2C833.433 95.8667 824.767 95.5 816.1 94.1L812.9 93.5C813.233 87.2333 813.733 77.5 814.4 64.3H817.6C826.467 64.4334 835.733 65.8667 845.4 68.6C845.067 79.1334 843.967 88 842.1 95.2Z" fill="url(#paint71_linear_68_1511)"/>
<path style="mix-blend-mode:multiply" opacity="0.5" d="M817.6 64.3C817.6 76.4334 816.767 86.3 815.1 93.9L812.9 93.5L814.4 64.3H817.6Z" fill="url(#paint72_linear_68_1511)"/>
<path d="M844.4 73.2V74.8C836 72.7333 827.3 71.6333 818.3 71.5V69.9C827.433 70.7 836.133 71.8 844.4 73.2Z" fill="url(#paint73_linear_68_1511)"/>
<path style="mix-blend-mode:multiply" opacity="0.5" d="M846.1 109.3L844.6 116.7L801.8 106C818.933 108.333 834.7 109 849.1 108L846.1 109.3Z" fill="url(#paint74_linear_68_1511)"/>
<path style="mix-blend-mode:multiply" opacity="0.6" d="M785.7 139.5L792.8 80.6C795.933 85.8 797.4 106.467 797.2 142.6L789.7 141.6L785.7 139.5Z" fill="url(#paint75_linear_68_1511)"/>
<path d="M761.7 109.7L762 110.5C769.266 113.433 780.233 115.5 794.9 116.7C809.5 117.9 826 118.267 844.4 117.8L844.6 116.7L846.2 118.1L844.4 125.8C828.4 127 812.266 126.767 796 125.1C795.2 125.033 794.433 124.967 793.7 124.9C778.566 123.167 767.666 120.667 761 117.4L760.3 109.7H761.7Z" fill="url(#paint76_linear_68_1511)"/>
<path d="M817.8 145.1L810.4 144.4V143.7H811.6C817.667 133.167 821.3 118.3 822.5 99.1L829.1 99.8C826.233 121.733 822.467 136.833 817.8 145.1Z" fill="url(#paint77_linear_68_1511)"/>
<path d="M831.8 110.7L831 116.4L829.1 117.5L828 125.8L829.8 127.5L829.1 131.6L816.1 130.1L812.9 128.6L813.3 124.4L816.3 123L817.1 115.9L814.6 114V109.7L816.9 109.2L831.8 110.7Z" fill="url(#paint78_linear_68_1511)"/>
<path style="mix-blend-mode:multiply" opacity="0.5" d="M817.6 109.3V114L819.2 115.7L818.4 123.9L816.9 124.3L816.1 130.1L812.9 128.6L813.3 124.4L816.3 123L817.1 115.9L814.6 114V109.7L816.9 109.2L817.6 109.3Z" fill="url(#paint79_linear_68_1511)"/>
<path d="M830.5 116.7C831.767 119.633 831.3 123.033 829.1 126.9L828 125.8L829.1 117.5L830.5 116.7Z" fill="#684A79"/>
<path d="M817.9 124L816 124.5L814.3 124C813.567 120.6 813.9 117.433 815.3 114.5H817.6L818.7 115.7L817.9 124Z" fill="url(#paint80_linear_68_1511)"/>
<path d="M818.7 115.7L817.9 124L816.3 124.4C816.033 120.867 816.466 117.567 817.6 114.5L818.7 115.7Z" fill="#684A79"/>
<path d="M774.4 75.3C768.267 78.2333 764.633 80.5333 763.5 82.2C759.567 79.2667 758.1 75.3 759.1 70.3L761.9 69.4C761.767 67 762.3 65.3 763.5 64.3C767.767 63.9667 772.4 65.3667 777.4 68.5L779.9 69.2C780.4 69.5 788.7 74.1 791.8 78.5C795.1 83.1 795.5 102.6 794.1 111.9C791.4 128.9 786.7 138.9 785.7 139.6C784.6 140.2 773.2 137.7 768.6 132.3C768.467 132.1 768.3 131.867 768.1 131.6C763.7 124.9 760 101.2 760 98.7C760 96.9 765.167 89.1 775.5 75.3H774.4Z" fill="url(#paint81_linear_68_1511)"/>
<path d="M779.9 69.2C778.167 69.7333 776.7 71.7667 775.5 75.3H774.4C774.733 72.5 775.767 70.2333 777.5 68.5L779.9 69.2Z" fill="url(#paint82_linear_68_1511)"/>
<path style="mix-blend-mode:multiply" opacity="0.6" d="M766 97.8L770.5 96.3L774.4 90L777.6 77.7L776.9 72.1L778.3 70.3L780 82.4L777.6 93L785.8 89.7L788.2 77.3L779.9 69.2C780.4 69.5 788.7 74.1 791.8 78.5C795.1 83.1 795.5 102.6 794.1 111.9C791.4 128.9 786.7 138.9 785.7 139.6C784.6 140.2 773.2 137.7 768.6 132.3C768.467 132.1 768.3 131.867 768.1 131.6L764.6 111.4L766 97.8Z" fill="url(#paint83_linear_68_1511)"/>
<path style="mix-blend-mode:multiply" opacity="0.6" d="M776.5 72.8L775.5 78.2L770.5 87.6L766.1 89.8L774.4 77.1L775.6 74.8L776.5 72.8Z" fill="url(#paint84_linear_68_1511)"/>
<path style="mix-blend-mode:multiply" opacity="0.6" d="M776.5 69.7C769.833 68.4333 764.967 68.3333 761.9 69.4L762.2 66.8C766.267 67 771.033 67.9666 776.5 69.7Z" fill="url(#paint85_linear_68_1511)"/>
<path style="mix-blend-mode:multiply" opacity="0.6" d="M774.8 73.3C771.067 73.8333 768.067 74.8 765.8 76.2L764.6 76.4L767.7 72.3L775.3 71.9L774.8 73.3Z" fill="url(#paint86_linear_68_1511)"/>
<path style="mix-blend-mode:multiply" opacity="0.6" d="M794.1 42.1L796 41.7C802.133 56.7 803.333 76.8 799.6 102H803.3C808.033 81 806.9 60.8667 799.9 41.6C810 41.7 834.4 43.7 849.5 49.7C858.233 65.3667 858.1 84.8 849.1 108L846.1 109.3C843.967 122.167 840.467 133.8 835.6 144.2C826.4 145 815 144.4 806 143.6C805.733 143.533 805.5 143.5 805.3 143.5C798.5 142.9 793.1 142.1 790.8 141.8C790.667 141.8 790.533 141.8 790.4 141.8C790.333 141.733 790.233 141.7 790.1 141.7C789.967 141.7 789.867 141.7 789.8 141.7L789.7 141.6H789.6L785.9 139.7L785.7 139.6V139.5C795.033 110.1 797.833 77.6333 794.1 42.1Z" fill="url(#paint87_linear_68_1511)"/>
<path d="M761.7 109.7L762 110.5C769.266 113.433 780.233 115.5 794.9 116.7L793.7 118.1V124.9C778.566 123.167 767.666 120.667 761 117.4L760.3 109.7H761.7Z" fill="#684A79"/>
<g style="mix-blend-mode:multiply" opacity="0.3">
<path d="M734.8 79H730C731.133 76.7333 732.8 75.3334 735 74.8C735.133 76.6667 735.067 78.0667 734.8 79Z" fill="#D97759"/>
</g>
<g style="mix-blend-mode:soft-light">
<path d="M765.9 258.5L767.7 261.3C766.033 261.633 764.1 261.633 761.9 261.3C759.7 260.967 758.333 260.533 757.8 260C761.666 259.8 764.367 259.3 765.9 258.5Z" fill="#E0FFFF"/>
</g>
<g style="mix-blend-mode:soft-light">
<path d="M828.2 256.9L829.4 260.4C824.267 261.2 819.467 260.7 815 258.9C815.4 258.633 817.133 258.5 820.2 258.5C826.6 258.6 827.7 257.3 828.2 256.9Z" fill="#E0FFFF"/>
</g>
<path d="M784.4 30.1L775.4 28.6C771.467 24.7333 768.333 22.6 766 22.2C766.6 22.2 768.233 22.7 770.9 23.7C777.1 27.6333 781.6 29.7667 784.4 30.1Z" fill="#E0FFFF"/>
<path d="M789.5 30.1L785.4 29.3V30.4L784.1 30.1L784.7 28.7L789.5 30.1Z" fill="#FFD1AE"/>
<path d="M736.3 36.1C738.1 36.5 742 40.3 746.4 45.3L746.6 45.4L707.8 51.7L694.8 54.9C695.8 53.4 733.1 35.5 736.3 36.1Z" fill="#FFFFE6"/>
<path d="M688 60.3C690 58.9 691.7 57.6333 693.1 56.5L712.7 54.9L704.5 66.8L690.1 65.6L679.6 70.2C680.8 68.4 684.2 63.4 688 60.3Z" fill="#FFFFE6"/>
<path d="M777.5 68.5L775 69.2C769.2 67.6667 764.933 66.8667 762.2 66.8C762.066 65.6667 762.5 64.8333 763.5 64.3C767.633 63.1667 772.3 64.5667 777.5 68.5Z" fill="#FFA190"/>
<path d="M773.4 69.7L770.3 71.9L759.7 74.1C759.1 72.6333 758.9 71.3667 759.1 70.3C763.967 68.7667 768.733 68.5667 773.4 69.7Z" fill="#FFA190"/>
<path d="M817.6 64.3C817.6 76.3667 816.767 86.2333 815.1 93.9L812.9 93.5L814.4 64.3H817.6Z" fill="#FF8645"/>
<path style="mix-blend-mode:multiply" opacity="0.6" d="M845.2 69.9L847.4 71.9L844.4 99.1C833.133 99.2333 824.167 98.5333 817.5 97L814 93.7C823.667 94.9 833.033 95.4 842.1 95.2C844.033 86.1333 845.067 77.7 845.2 69.9Z" fill="url(#paint88_linear_68_1511)"/>
<path d="M859.6 41.1L848.7 38.2H831.5C843.367 37 851.2 36.6 855 37C857.2 38.0667 858.733 39.4333 859.6 41.1Z" fill="#E0FFFF"/>
<g style="mix-blend-mode:soft-light">
<path d="M786.8 10.2L786.4 11.7C789.8 17.8333 794.767 23.2334 801.3 27.9C807.767 32.6334 814.267 34.7667 820.8 34.3L821.1 36.8C815.633 37.3334 808.8 34.7 800.6 28.9C792.333 23.1 787.333 17.1667 785.6 11.1L786.8 10.2Z" fill="#FFC754"/>
</g>
<g style="mix-blend-mode:multiply">
<path d="M849.5 49.7C858.3 66.9667 858.167 86.4 849.1 108L846.1 109.3L844.6 116.7L846.2 118.1L844.4 125.8L842.3 125.9C840.233 134.1 838 140.2 835.6 144.2C819.8 146.4 804.533 145.567 789.8 141.7L785.7 139.5L789.2 124.3L789.3 116.2C777.833 114.867 769.6 113.267 764.6 111.4L766 97.8L770.5 96.3L774.4 90L777.6 93L785.8 89.7L794.1 93L793.3 116.7C796.367 95.2333 796.633 70.3667 794.1 42.1L796 41.7C802.267 59.6333 803.467 79.7333 799.6 102H803.3C808.233 79.1333 807.1 59 799.9 41.6C821.567 41.4667 838.1 44.1667 849.5 49.7Z" fill="#984372"/>
</g>
<g style="mix-blend-mode:multiply">
<path d="M751.6 53.7C751.533 53.7 751.5 53.7667 751.5 53.9C751.433 54.1 751.467 54.0333 751.6 53.7Z" fill="#543160"/>
</g>
<path style="mix-blend-mode:screen" opacity="0.3" fill-rule="evenodd" clip-rule="evenodd" d="M679.6 70.2C680.8 68.4 684.2 63.4 688 60.3C690 58.9 691.7 57.6333 693.1 56.5C693.9 55.9 694.5 55.3 694.8 54.9C695.8 53.4 733.1 35.5 736.3 36.1C738.1 36.5 742 40.3 746.4 45.3L746.6 45.4C751.3 50.8 756.7 57.5 760.8 62.9C762.4 60.4 763.9 58.2 765.2 56.7C763.8 55.7667 761.567 53.3 758.5 49.3C758.8 48.3 759.8 47.7 760.3 47.3H760.4C760.533 47.1667 760.667 47.1 760.8 47.1C759.067 45.3667 757.667 43.2 756.6 40.6C755 36.6 754.7 30.7 756.7 26.8C758.5 23.4 763.3 22 766 22.2C766 22.2 766.033 22.2333 766.1 22.3C766.167 22.3 766.233 22.3 766.3 22.3C766.367 22.3 766.433 22.3 766.5 22.3C766.633 22.3 766.767 22.3333 766.9 22.4C767.6 22.6 768.8 22.9 770.9 23.7C772.433 24.7 774.167 25.7 776.1 26.7C776.4 26.9 776.6 27 776.9 27.1C778.6 27.9 781.1 28.9 784.2 30L784.7 28.7L786.1 29.1C786.6 27 787.4 25.9 787.8 24.9C787.867 24.7 787.933 24.5 788 24.3C786.667 22.3 785.667 20.5333 785 19C785 19 784.8 13.8 785.6 11.1L786.8 10.2C791.6 3.2 797.2 -0.133329 803.6 0.200004C811.3 0.500004 817.9 5.60001 822.1 13.1C823.167 14.9 824.067 16.8667 824.8 19C827.267 26 825.933 31.1 820.8 34.3L821.1 36.8C820.967 37.2667 820.533 37.7333 819.8 38.2C821.467 38.2667 823.133 38.3333 824.8 38.4L825.4 37.4L828.3 37.5C828.5 37.7 828.7 37.9667 828.9 38.3C830.3 38.3 831.7 38.2667 833.1 38.2H831.5C843.367 37 851.2 36.6 855 37C857.2 38.0667 858.733 39.4333 859.6 41.1C860.2 41.8 860.6 42.7 860.9 43.6C861.5 45.8 861.9 49.9 860.9 53.9C860.6 55.1 860.1 56.4 859.5 57.6C858.1 59.9 856.1 61.9 854.1 63.2C855.2 69.1 855.4 75.1 855.1 80.6C854.967 82.7333 854.767 84.9667 854.5 87.3C856.6 90.5 859.1 95.4 859.6 101.5C860.5 112.4 853.7 133 848.7 138.1C845.367 141.5 843.033 142.867 841.7 142.2L840.9 143.4C840 147.3 839.8 154.8 839.3 155.7C838.9 156.233 837.333 157.733 834.6 160.2C834.467 159.933 834.367 159.567 834.3 159.1L831.7 161.1C830.7 160.633 830.067 159.733 829.8 158.4C829.4 156.3 830.6 153.1 832.2 150.7L832.5 148.9C831.767 150.1 831.133 151.1 830.6 151.9C830.2 152.5 829.6 153.3 829 154C829.4 162.1 830.4 171.9 831.4 179.3C832 184.6 832.8 188.7 833.4 190.3C833.5 190.7 833.8 191.1 834 191.6C836.3 196.5 841.6 203.2 846.5 210.6C851.8 218.5 851.3 224.4 851.5 226.2C851.6 227.1 851.9 228.4 852.3 229.5C852.7 230.5 853.1 231.3 853.5 231.6C853.5 231.667 853.533 231.733 853.6 231.8C853.667 231.8 853.733 231.8 853.8 231.8C854.7 232.3 857 232.7 857.2 233.8C857.267 234 857.233 234.267 857.1 234.6C856.9 235.1 856.7 235.7 856.4 236.3C855.867 237.367 855.233 238.467 854.5 239.6C855.767 239.867 856.367 240.267 856.3 240.8C856.2 240.9 856.1 241.1 855.8 241.4C855.4 241.8 854.8 242.3 853.8 242.8C853.533 242.933 853.233 243.1 852.9 243.3C852.967 243.3 853 243.267 853 243.2C854.333 244 855.033 244.5 855.1 244.7C855.2 245 852.9 248.5 853 253.8C853.133 257.267 853.5 259.5 854.1 260.5C853.167 261.233 851.767 261.867 849.9 262.4C850.4 265 850.9 268.2 850.9 269C850.9 269.867 850.6 270.7 850 271.5V274.6C842.733 275.733 836.933 275.733 832.6 274.6C832.267 274 832.067 273.533 832 273.2C832 272.7 831.2 271.1 830.5 270.8C830.2 270.7 829.2 270.7 827.9 270.7C826 270.7 823.5 270.7 820.9 270.4C817.9 270.067 815.033 268.567 812.3 265.9L813.2 264.7C813.8 261.233 814.4 259.3 815 258.9C815 258.9 815.033 258.9 815.1 258.9C815.3 258.8 815.7 258.7 816.3 258.7C817.1 258.6 818.3 258.5 820.2 258.5C821.3 258.5 822.5 258.5 823.5 258.4C824.8 258.3 825.7 258.1 826.4 257.9C826.533 257.833 826.7 257.767 826.9 257.7C826.967 257.7 827.033 257.667 827.1 257.6C827.5 257.4 827.867 257.167 828.2 256.9C828.467 256.7 828.733 256.5 829 256.3C828.2 255.767 827.6 255.333 827.2 255C828.733 252.467 829.567 250.733 829.7 249.8C829.9 249 829.9 246 829.9 243.6V240.4L831.3 240V239.3C831.3 239.233 831.3 239.2 831.3 239.2H831.2C831.2 239.2 831.2 239.1 831.1 239C830.9 238.5 830.2 237.3 829.6 236C829.467 235.8 829.367 235.567 829.3 235.3C829.233 235.233 829.2 235.167 829.2 235.1C828.9 234.4 828.6 233.8 828.5 233.3C828.367 232.9 828.3 232.6 828.3 232.4C828.433 231.467 829.433 229.8 831.3 227.4C828.9 213.9 822 204.8 820 202.3C819.5 201.7 819 200.9 818.6 200.2C818.6 200.2 817.5 198.9 815.8 193.7C815.3 192.2 814.8 190.2 814.2 187.9C812.5 180.5 810.4 168.8 808.6 150.7C808.6 150.633 808.6 150.6 808.6 150.6C807.933 150.6 807.333 150.633 806.8 150.7C806.6 150.767 806.4 150.8 806.2 150.8C805.867 150.933 805.5 151.033 805.1 151.1C804.967 151.167 804.8 151.233 804.6 151.3C804.267 151.433 803.967 151.567 803.7 151.7C803.5 151.767 803.333 151.833 803.2 151.9C802.933 152.033 802.667 152.167 802.4 152.3C802.267 152.433 802.133 152.533 802 152.6C801.733 152.733 801.5 152.867 801.3 153C801.233 153.067 801.133 153.133 801 153.2C800.8 153.333 800.633 153.467 800.5 153.6C800.433 153.6 800.367 153.633 800.3 153.7C800.2 153.8 800.1 153.9 800 154C799.933 154 799.9 154.033 799.9 154.1H799.8C796.8 159.8 790.6 193.8 790.6 196.8C790.6 199.4 792.1 209.3 793.3 216.6C793.433 217.267 793.567 217.933 793.7 218.6C793.9 219.533 794.033 220.467 794.1 221.4C794.3 222.8 794.3 224.3 794.3 225.6C794.367 228.667 794.2 231.433 793.8 233.9C794 233.967 794.167 234.067 794.3 234.2C794.4 234.4 794.6 234.7 794.5 235C794.5 235.3 794.3 235.9 794 236.5C793.5 237.7 792.9 239.2 792.7 239.4V239.5C794.9 239.5 796.133 239.733 796.4 240.2V240.3C796.4 240.5 796.3 240.8 796.1 241.3C795.9 241.8 795.6 242.4 795.3 243.1C794.5 244.5 793.6 246.033 792.6 247.7L793.8 249.3C792 251.567 790.967 253.667 790.7 255.6C790.367 257.6 790.533 259.9 791.2 262.5C790.333 262.967 789.167 263.467 787.7 264C788.4 265.5 789.7 268.9 789.7 269.5C789.7 269.967 789.3 270.7 788.5 271.7L789 274.3C783.733 275.767 777.667 275.767 770.8 274.3C770.267 273.233 769.767 272.6 769.3 272.4C768.833 272.2 768.367 272.2 767.9 272.4L766.4 273C761.467 273.533 757.233 272.9 753.7 271.1L754.3 269.7C754.033 265.767 755.2 262.533 757.8 260C761.3 259.8 763.6 259.3 764.8 258.9C765.133 258.767 765.5 258.633 765.9 258.5C766.233 258.3 766.533 258.133 766.8 258C766.4 257.467 766.1 257 765.9 256.6C767.033 253.067 767.867 250 768.4 247.4C768.6 246.6 768.7 245.9 768.7 245.3C768.167 244.567 767.733 243.9 767.4 243.3C767.1 242.8 766.9 242.4 766.9 242.1C767 241.8 768 241.1 769.1 240.2C769.9 239.4 770.8 238.4 771.6 237.3C772.9 235 775.8 217.7 775.5 210.2C775.233 205.2 774.767 200.1 774.1 194.9C773.9 179 778.1 150 779 144.4C779.067 144 779.1 143.667 779.1 143.4C779.1 143.4 779.067 143.333 779 143.2C778.5 142.5 776.8 139.9 776.8 139.6C776.867 139.467 777.633 139.067 779.1 138.4C775.4 137.2 771.1 135.2 768.6 132.3C768.467 132.1 768.3 131.867 768.1 131.6C766.4 129 764.8 123.9 763.5 118.4C762.367 118 761.533 117.667 761 117.4L760.5 111.7C753.7 113.4 747.2 112.8 743.3 109.7C735.9 103.9 732.3 91.3 731.3 87.3C731.3 87.2333 731.3 87.1667 731.3 87.1C731.167 86.5 731.067 86.1333 731 86L730 84.7C730.067 84.3 730.167 83.9333 730.3 83.6L729.1 82.3C723.567 79.1667 719.5 76.8333 716.9 75.3C714.233 73.8333 712.533 71.9 711.8 69.5C712.267 70.0333 713.067 70.6667 714.2 71.4L711.8 69.5H712.6C709.3 68.5 706.2 67.6 704.5 67.3C702.6 66.9 700.2 66.6 697.9 66.3L690.1 65.6L689.7 65.8C687.6 66.8 679.7 70.7 679.2 70.9C679.267 70.8333 679.4 70.6 679.6 70.2ZM843.7 244.4C838.2 243.6 831.4 241 831.3 240.9C831.5 241 839.1 244 843.7 244.4ZM829.4 148.9C831.133 148.033 832.5 146.567 833.5 144.5C832.833 144.567 832.167 144.633 831.5 144.7C830.9 145.3 830 146.8 828.8 147.2C828.8 147.6 828.8 148 828.8 148.4C828.8 148.8 828.8 149.2 828.8 149.6C829 149.333 829.2 149.1 829.4 148.9Z" fill="url(#paint89_linear_68_1511)"/>
<g style="mix-blend-mode:multiply" opacity="0.7">
<path fill-rule="evenodd" clip-rule="evenodd" d="M768.6 132.3C768.467 132.1 768.3 131.867 768.1 131.6C766.4 129 764.8 123.9 763.5 118.4C762.367 118 761.533 117.667 761 117.4L760.5 111.7C755.5 112.9 750.7 113 746.9 111.7C750.033 111.3 754.8 108.867 761.2 104.4L791.4 97.4L794.2 95.9L801.8 84L805.9 86L814 84L849.1 71.9L855.1 80.6C854.967 82.7333 854.767 84.9667 854.5 87.3C856.6 90.5 859.1 95.4 859.6 101.5C860.5 112.4 853.7 133 848.7 138.1C845.367 141.5 843.033 142.867 841.7 142.2L840.9 143.4C840 147.3 839.8 154.8 839.3 155.7C838.9 156.233 837.333 157.733 834.6 160.2C834.467 159.933 834.367 159.567 834.3 159.1L831.7 161.2C830.767 160.667 830.133 159.733 829.8 158.4C829.4 156.3 830.6 153.1 832.2 150.8L832.5 148.9C831.767 150.167 831.133 151.167 830.6 151.9C830.2 152.5 829.6 153.3 829 154C829.4 162.1 830.4 171.9 831.3 179.4C832 184.6 832.8 188.7 833.4 190.3C833.5 190.7 833.8 191.1 834 191.6C836.3 196.5 841.6 203.2 846.5 210.6C851.8 218.5 851.3 224.4 851.5 226.2C851.6 227.1 851.9 228.4 852.3 229.5C852.7 230.5 853.1 231.3 853.5 231.6C853.5 231.667 853.533 231.733 853.6 231.8C853.667 231.8 853.733 231.8 853.8 231.8C854.7 232.3 857 232.7 857.2 233.8C857.267 234 857.233 234.267 857.1 234.6C856.9 235.1 856.7 235.7 856.4 236.3C855.8 237.367 855.167 238.467 854.5 239.6C855.767 239.867 856.367 240.267 856.3 240.8C856.2 240.9 856.1 241.1 855.8 241.4C855.4 241.8 854.8 242.3 853.8 242.8C853.533 242.933 853.233 243.1 852.9 243.3C852.967 243.3 853 243.267 853 243.2C854.333 244 855.033 244.5 855.1 244.7C855.2 245 852.9 248.5 853 253.8C853.133 257.267 853.5 259.5 854.1 260.5C853.167 261.233 851.767 261.867 849.9 262.4C850.4 265 850.9 268.2 850.9 269C850.9 269.867 850.6 270.7 850 271.5V274.6C842.733 275.733 836.933 275.733 832.6 274.6C832.267 274 832.067 273.533 832 273.2C832 272.7 831.2 271.1 830.5 270.9C830.2 270.7 829.2 270.7 827.8 270.7C826 270.7 823.5 270.7 820.9 270.4C817.9 270.067 815.033 268.567 812.3 265.9L813.2 264.7C813.8 261.233 814.4 259.3 815 258.9C815 258.9 815.033 258.9 815.1 258.9C815.3 258.8 815.7 258.7 816.3 258.7C817.1 258.6 818.3 258.5 820.2 258.5C821.3 258.5 822.5 258.5 823.5 258.4C824.8 258.3 825.7 258.1 826.4 257.9C826.6 257.8 826.7 257.8 826.9 257.7C826.967 257.7 827.033 257.667 827.1 257.6C827.5 257.4 827.867 257.2 828.2 257V256.9C828.467 256.7 828.733 256.5 829 256.3C828.2 255.767 827.567 255.333 827.1 255C828.7 252.467 829.6 250.733 829.8 249.8C829.9 249 829.9 246 829.9 243.6V240.4L831.3 240V239.2H831.2C831.2 239.133 831.167 239.067 831.1 239C830.8 238.5 830.2 237.3 829.6 236C829.467 235.8 829.367 235.567 829.3 235.3C829.233 235.233 829.2 235.167 829.2 235.1C828.9 234.4 828.6 233.8 828.5 233.3C828.367 232.9 828.3 232.6 828.3 232.4C828.433 231.467 829.433 229.8 831.3 227.4C828.9 213.9 822 204.8 820 202.3C819.5 201.7 819 200.9 818.6 200.2C817.867 199.333 816.933 197.167 815.8 193.7C815.3 192.2 814.8 190.2 814.2 187.9C812.5 180.5 810.4 168.9 808.6 150.7C808.6 150.633 808.6 150.6 808.6 150.6C808 150.6 807.4 150.633 806.8 150.7C806.6 150.7 806.4 150.8 806.2 150.8C805.867 150.933 805.533 151.033 805.2 151.1C805 151.167 804.8 151.233 804.6 151.3C804.267 151.433 803.967 151.567 803.7 151.7C803.5 151.767 803.333 151.833 803.2 151.9C802.9 152.1 802.6 152.2 802.4 152.3C802.267 152.433 802.133 152.533 802 152.6C801.733 152.733 801.5 152.867 801.3 153C801.233 153.067 801.133 153.133 801 153.2C800.8 153.333 800.633 153.467 800.5 153.6C800.433 153.667 800.367 153.7 800.3 153.7C800.167 153.833 800.067 153.933 800 154C799.933 154 799.9 154.033 799.9 154.1C799.9 154.1 799.867 154.1 799.8 154.1C798.3 157 796 166.9 794.1 176.5C792.1 186.1 790.6 195.3 790.6 196.8C790.6 199.4 792.1 209.3 793.3 216.6C793.433 217.267 793.567 217.933 793.7 218.6C793.9 219.533 794.033 220.467 794.1 221.4C794.3 222.8 794.3 224.3 794.3 225.6C794.367 228.667 794.2 231.433 793.8 233.9C794 233.967 794.167 234.067 794.3 234.2C794.4 234.4 794.6 234.7 794.6 235C794.5 235.3 794.3 235.9 794 236.5C793.5 237.7 792.8 239.2 792.7 239.4V239.5C794.9 239.5 796.133 239.733 796.4 240.2V240.3C796.4 240.5 796.3 240.8 796.1 241.3C795.9 241.8 795.6 242.4 795.3 243.1C794.5 244.5 793.6 246.033 792.6 247.7L793.8 249.3C792 251.567 790.967 253.667 790.7 255.6C790.367 257.6 790.567 259.9 791.3 262.5C790.367 262.967 789.167 263.467 787.7 264C788.3 265.5 789.7 268.9 789.7 269.5C789.7 269.967 789.3 270.7 788.5 271.7L789 274.3C783.733 275.7 777.667 275.7 770.8 274.3C770.267 273.233 769.767 272.6 769.3 272.4C768.833 272.133 768.367 272.133 767.9 272.4L766.4 273C761.533 273.533 757.3 272.9 753.7 271.1L754.3 269.7C754.033 265.767 755.2 262.533 757.8 260C761.3 259.8 763.6 259.3 764.8 258.9C765.133 258.767 765.5 258.633 765.9 258.5C766.233 258.3 766.533 258.133 766.8 258C766.4 257.467 766.1 257.033 765.9 256.7C767.033 253.033 767.867 249.933 768.4 247.4C768.533 246.6 768.633 245.9 768.7 245.3C768.167 244.567 767.733 243.9 767.4 243.3C767.1 242.8 766.9 242.4 767 242.1C767 241.8 768 241.1 769.1 240.2C769.9 239.4 770.8 238.4 771.6 237.3C772.9 235 775.8 217.7 775.5 210.2C775.233 205.2 774.767 200.1 774.1 194.9C774 179 778.1 150 779 144.4C779.067 144 779.1 143.667 779.1 143.4C779.1 143.4 779.067 143.333 779 143.2C778.5 142.5 776.9 139.9 776.9 139.6C776.9 139.467 777.633 139.067 779.1 138.4C777.3 137.8 775.2 137 773.4 136C771.5 135 769.8 133.7 768.6 132.3ZM843.7 244.4C839.6 243.8 834.7 242.2 832.5 241.4C834.9 242.3 840.1 244.1 843.7 244.4ZM828.8 148.4C828.8 148.8 828.8 149.2 828.8 149.6C829 149.333 829.2 149.1 829.4 148.9C831.133 148.033 832.5 146.567 833.5 144.5C832.833 144.567 832.167 144.633 831.5 144.7C830.9 145.3 830 146.8 828.8 147.2C828.8 147.6 828.8 148 828.8 148.4Z" fill="#543160"/>
</g>
<path d="M714.2 71.4L711.8 69.5C712 69.7 712.7 70.5 714.2 71.4Z" fill="#543160"/>
<defs>
<linearGradient id="paint0_linear_68_1511" x1="104.8" y1="263" x2="134.1" y2="263" gradientUnits="userSpaceOnUse">
<stop stop-color="#9D7C90"/>
<stop offset="1" stop-color="#775477"/>
</linearGradient>
<linearGradient id="paint1_linear_68_1511" x1="3.3999" y1="255.7" x2="708.7" y2="255.7" gradientUnits="userSpaceOnUse">
<stop stop-color="#9D7C90"/>
<stop offset="1" stop-color="#775477"/>
</linearGradient>
<linearGradient id="paint2_linear_68_1511" x1="549.7" y1="383.3" x2="539.1" y2="279.2" gradientUnits="userSpaceOnUse">
<stop stop-color="#382C44"/>
<stop offset="1" stop-color="#594C4C"/>
</linearGradient>
<linearGradient id="paint3_linear_68_1511" x1="243.7" y1="293.5" x2="241.1" y2="268" gradientUnits="userSpaceOnUse">
<stop stop-color="#9D7C90"/>
<stop offset="1" stop-color="#775477"/>
</linearGradient>
<linearGradient id="paint4_linear_68_1511" x1="281.3" y1="348.3" x2="275.6" y2="292.9" gradientUnits="userSpaceOnUse">
<stop stop-color="#9D7C90"/>
<stop offset="1" stop-color="#775477"/>
</linearGradient>
<linearGradient id="paint5_linear_68_1511" x1="330.1" y1="374.3" x2="329.2" y2="365.4" gradientUnits="userSpaceOnUse">
<stop stop-color="#9D7C90"/>
<stop offset="1" stop-color="#775477"/>
</linearGradient>
<linearGradient id="paint6_linear_68_1511" x1="431.7" y1="296.2" x2="430.5" y2="284.9" gradientUnits="userSpaceOnUse">
<stop stop-color="#9D7C90"/>
<stop offset="1" stop-color="#775477"/>
</linearGradient>
<linearGradient id="paint7_linear_68_1511" x1="419.1" y1="289.1" x2="418.5" y2="283.3" gradientUnits="userSpaceOnUse">
<stop stop-color="#9D7C90"/>
<stop offset="1" stop-color="#775477"/>
</linearGradient>
<linearGradient id="paint8_linear_68_1511" x1="473" y1="276.9" x2="809.1" y2="276.9" gradientUnits="userSpaceOnUse">
<stop stop-color="#9D7C90"/>
<stop offset="1" stop-color="#775477"/>
</linearGradient>
<linearGradient id="paint9_linear_68_1511" x1="603.5" y1="299.5" x2="940.4" y2="299.5" gradientUnits="userSpaceOnUse">
<stop stop-color="#9D7C90"/>
<stop offset="1" stop-color="#775477"/>
</linearGradient>
<linearGradient id="paint10_linear_68_1511" x1="563.3" y1="259.5" x2="748.4" y2="259.5" gradientUnits="userSpaceOnUse">
<stop stop-color="#9D7C90"/>
<stop offset="1" stop-color="#775477"/>
</linearGradient>
<linearGradient id="paint11_linear_68_1511" x1="648.2" y1="241.1" x2="648.2" y2="236.8" gradientUnits="userSpaceOnUse">
<stop stop-color="#9D7C90"/>
<stop offset="1" stop-color="#775477"/>
</linearGradient>
<linearGradient id="paint12_linear_68_1511" x1="887.2" y1="249.4" x2="887.2" y2="233.9" gradientUnits="userSpaceOnUse">
<stop stop-color="#9D7C90"/>
<stop offset="1" stop-color="#775477"/>
</linearGradient>
<linearGradient id="paint13_linear_68_1511" x1="815.6" y1="273.4" x2="815.6" y2="266.8" gradientUnits="userSpaceOnUse">
<stop stop-color="#9D7C90"/>
<stop offset="1" stop-color="#775477"/>
</linearGradient>
<linearGradient id="paint14_linear_68_1511" x1="898" y1="291.4" x2="898" y2="287.8" gradientUnits="userSpaceOnUse">
<stop stop-color="#9D7C90"/>
<stop offset="1" stop-color="#775477"/>
</linearGradient>
<linearGradient id="paint15_linear_68_1511" x1="876.8" y1="374" x2="876.8" y2="329.9" gradientUnits="userSpaceOnUse">
<stop stop-color="#9D7C90"/>
<stop offset="1" stop-color="#775477"/>
</linearGradient>
<linearGradient id="paint16_linear_68_1511" x1="431.1" y1="369.4" x2="431.1" y2="349.7" gradientUnits="userSpaceOnUse">
<stop stop-color="#9D7C90"/>
<stop offset="1" stop-color="#775477"/>
</linearGradient>
<linearGradient id="paint17_linear_68_1511" x1="500.1" y1="369.4" x2="500.1" y2="359.5" gradientUnits="userSpaceOnUse">
<stop stop-color="#9D7C90"/>
<stop offset="1" stop-color="#775477"/>
</linearGradient>
<linearGradient id="paint18_linear_68_1511" x1="230.1" y1="319.1" x2="230.1" y2="305.8" gradientUnits="userSpaceOnUse">
<stop stop-color="#9D7C90"/>
<stop offset="1" stop-color="#775477"/>
</linearGradient>
<linearGradient id="paint19_linear_68_1511" x1="133.3" y1="324.6" x2="133.3" y2="299.4" gradientUnits="userSpaceOnUse">
<stop stop-color="#9D7C90"/>
<stop offset="1" stop-color="#775477"/>
</linearGradient>
<linearGradient id="paint20_linear_68_1511" x1="117.7" y1="323.9" x2="117.7" y2="301.4" gradientUnits="userSpaceOnUse">
<stop stop-color="#9D7C90"/>
<stop offset="1" stop-color="#775477"/>
</linearGradient>
<linearGradient id="paint21_linear_68_1511" x1="878.8" y1="251.4" x2="966" y2="251.4" gradientUnits="userSpaceOnUse">
<stop stop-color="#9D7C90"/>
<stop offset="1" stop-color="#775477"/>
</linearGradient>
<linearGradient id="paint22_linear_68_1511" x1="563.3" y1="339.7" x2="593.4" y2="339.7" gradientUnits="userSpaceOnUse">
<stop stop-color="#382C44"/>
<stop offset="1" stop-color="#594C4C"/>
</linearGradient>
<linearGradient id="paint23_linear_68_1511" x1="27.5" y1="303.2" x2="27.5" y2="285.3" gradientUnits="userSpaceOnUse">
<stop stop-color="#9D7C90"/>
<stop offset="1" stop-color="#775477"/>
</linearGradient>
<linearGradient id="paint24_linear_68_1511" x1="6.3999" y1="308.7" x2="6.3999" y2="302.1" gradientUnits="userSpaceOnUse">
<stop stop-color="#9D7C90"/>
<stop offset="1" stop-color="#775477"/>
</linearGradient>
<linearGradient id="paint25_linear_68_1511" x1="403.7" y1="328.9" x2="403.7" y2="315.3" gradientUnits="userSpaceOnUse">
<stop stop-color="#9D7C90"/>
<stop offset="1" stop-color="#775477"/>
</linearGradient>
<linearGradient id="paint26_linear_68_1511" x1="23.5" y1="353.6" x2="22.2999" y2="341.4" gradientUnits="userSpaceOnUse">
<stop stop-color="#9D7C90"/>
<stop offset="1" stop-color="#775477"/>
</linearGradient>
<linearGradient id="paint27_linear_68_1511" x1="106.3" y1="345.9" x2="105.6" y2="339.6" gradientUnits="userSpaceOnUse">
<stop stop-color="#9D7C90"/>
<stop offset="1" stop-color="#775477"/>
</linearGradient>
<linearGradient id="paint28_linear_68_1511" x1="329.3" y1="272.6" x2="345.2" y2="272.6" gradientUnits="userSpaceOnUse">
<stop stop-color="#9D7C90"/>
<stop offset="1" stop-color="#775477"/>
</linearGradient>
<linearGradient id="paint29_linear_68_1511" x1="140.5" y1="323.3" x2="176.3" y2="323.3" gradientUnits="userSpaceOnUse">
<stop stop-color="#9D7C90"/>
<stop offset="1" stop-color="#775477"/>
</linearGradient>
<linearGradient id="paint30_linear_68_1511" x1="490.7" y1="289.6" x2="499" y2="289.6" gradientUnits="userSpaceOnUse">
<stop stop-color="#9D7C90"/>
<stop offset="1" stop-color="#775477"/>
</linearGradient>
<linearGradient id="paint31_linear_68_1511" x1="309.9" y1="265.8" x2="360.7" y2="265.8" gradientUnits="userSpaceOnUse">
<stop stop-color="#9D7C90"/>
<stop offset="1" stop-color="#775477"/>
</linearGradient>
<linearGradient id="paint32_linear_68_1511" x1="237.1" y1="229" x2="367.6" y2="229" gradientUnits="userSpaceOnUse">
<stop stop-color="#59182C"/>
<stop offset="1" stop-color="#5A0E2E"/>
</linearGradient>
<linearGradient id="paint33_linear_68_1511" x1="283" y1="265" x2="283" y2="231.7" gradientUnits="userSpaceOnUse">
<stop stop-color="#9D7C90"/>
<stop offset="1" stop-color="#775477"/>
</linearGradient>
<linearGradient id="paint34_linear_68_1511" x1="730.4" y1="241.8" x2="730.4" y2="224.7" gradientUnits="userSpaceOnUse">
<stop stop-color="#9D7C90"/>
<stop offset="1" stop-color="#775477"/>
</linearGradient>
<radialGradient id="paint35_radial_68_1511" cx="0" cy="0" r="1" gradientUnits="userSpaceOnUse" gradientTransform="translate(629.5 333.9) scale(11.4)">
<stop stop-color="#A9D1FF"/>
<stop offset="1"/>
</radialGradient>
<linearGradient id="paint36_linear_68_1511" x1="0.5" y1="289.4" x2="1003.5" y2="289.4" gradientUnits="userSpaceOnUse">
<stop stop-color="#776D90"/>
<stop offset="1" stop-color="#775477"/>
</linearGradient>
<linearGradient id="paint37_linear_68_1511" x1="858.4" y1="160.2" x2="858.4" y2="91.1" gradientUnits="userSpaceOnUse">
<stop stop-color="#CD706F"/>
<stop offset="1" stop-color="#DB7766"/>
</linearGradient>
<linearGradient id="paint38_linear_68_1511" x1="859.2" y1="250.6" x2="859.2" y2="138.4" gradientUnits="userSpaceOnUse">
<stop stop-color="#4A4AA2"/>
<stop offset="1" stop-color="#6066BA"/>
</linearGradient>
<linearGradient id="paint39_linear_68_1511" x1="791" y1="274.3" x2="791" y2="269.7" gradientUnits="userSpaceOnUse">
<stop stop-color="#C96152"/>
<stop offset="1" stop-color="#C76834"/>
</linearGradient>
<linearGradient id="paint40_linear_68_1511" x1="852" y1="274.6" x2="852" y2="264.7" gradientUnits="userSpaceOnUse">
<stop stop-color="#C96152"/>
<stop offset="1" stop-color="#C76834"/>
</linearGradient>
<linearGradient id="paint41_linear_68_1511" x1="852.9" y1="271.6" x2="852.9" y2="254.9" gradientUnits="userSpaceOnUse">
<stop stop-color="#3E1B40"/>
<stop offset="1" stop-color="#3A234D"/>
</linearGradient>
<linearGradient id="paint42_linear_68_1511" x1="791.7" y1="271.6" x2="791.7" y2="257.9" gradientUnits="userSpaceOnUse">
<stop stop-color="#3E1B40"/>
<stop offset="1" stop-color="#3A234D"/>
</linearGradient>
<linearGradient id="paint43_linear_68_1511" x1="857.1" y1="263.1" x2="857.1" y2="240" gradientUnits="userSpaceOnUse">
<stop stop-color="#3E1B40"/>
<stop offset="1" stop-color="#523E63"/>
</linearGradient>
<linearGradient id="paint44_linear_68_1511" x1="795.8" y1="265.4" x2="795.8" y2="245.3" gradientUnits="userSpaceOnUse">
<stop stop-color="#3E1B40"/>
<stop offset="1" stop-color="#523E63"/>
</linearGradient>
<linearGradient id="paint45_linear_68_1511" x1="830.8" y1="154.1" x2="830.8" y2="131.6" gradientUnits="userSpaceOnUse">
<stop stop-color="#BE6888"/>
<stop offset="1" stop-color="#C26157"/>
</linearGradient>
<linearGradient id="paint46_linear_68_1511" x1="859.1" y1="244.7" x2="859.1" y2="233.3" gradientUnits="userSpaceOnUse">
<stop stop-color="#BE6888"/>
<stop offset="1" stop-color="#C26157"/>
</linearGradient>
<linearGradient id="paint47_linear_68_1511" x1="798.4" y1="250.6" x2="798.4" y2="240.2" gradientUnits="userSpaceOnUse">
<stop stop-color="#BE6888"/>
<stop offset="1" stop-color="#C26157"/>
</linearGradient>
<linearGradient id="paint48_linear_68_1511" x1="836.3" y1="190.8" x2="821.8" y2="190.8" gradientUnits="userSpaceOnUse">
<stop stop-color="#BE6888"/>
<stop offset="1" stop-color="#C26157"/>
</linearGradient>
<linearGradient id="paint49_linear_68_1511" x1="790.6" y1="193.7" x2="779" y2="193.7" gradientUnits="userSpaceOnUse">
<stop stop-color="#BE6888"/>
<stop offset="1" stop-color="#C26157"/>
</linearGradient>
<linearGradient id="paint50_linear_68_1511" x1="769.7" y1="95.9" x2="769.7" y2="36.7" gradientUnits="userSpaceOnUse">
<stop stop-color="#907AAC"/>
<stop offset="1" stop-color="#FFBAFF"/>
</linearGradient>
<linearGradient id="paint51_linear_68_1511" x1="765.4" y1="96.5" x2="731.3" y2="53.5" gradientUnits="userSpaceOnUse">
<stop stop-color="#CD706F"/>
<stop offset="1" stop-color="#DB7766"/>
</linearGradient>
<linearGradient id="paint52_linear_68_1511" x1="777.4" y1="105.9" x2="777.4" y2="73.3" gradientUnits="userSpaceOnUse">
<stop stop-color="#CD706F"/>
<stop offset="1" stop-color="#DB7766"/>
</linearGradient>
<radialGradient id="paint53_radial_68_1511" cx="0" cy="0" r="1" gradientUnits="userSpaceOnUse" gradientTransform="translate(767.6 57.8) scale(22.2)">
<stop stop-color="#FCBF00"/>
<stop offset="1" stop-color="#CCAE00"/>
</radialGradient>
<linearGradient id="paint54_linear_68_1511" x1="790.5" y1="108.9" x2="790.5" y2="54.3" gradientUnits="userSpaceOnUse">
<stop stop-color="#3E1B40"/>
<stop offset="1" stop-color="#3A234D"/>
</linearGradient>
<linearGradient id="paint55_linear_68_1511" x1="814.2" y1="49.7" x2="814.2" y2="17.6" gradientUnits="userSpaceOnUse">
<stop stop-color="#CD706F"/>
<stop offset="1" stop-color="#DB7766"/>
</linearGradient>
<linearGradient id="paint56_linear_68_1511" x1="827.4" y1="44.8" x2="827.4" y2="15.3" gradientUnits="userSpaceOnUse">
<stop stop-color="#A6453D"/>
<stop offset="1" stop-color="#6F2E45"/>
</linearGradient>
<radialGradient id="paint57_radial_68_1511" cx="0" cy="0" r="1" gradientUnits="userSpaceOnUse" gradientTransform="translate(802.6 10.4) scale(23.2)">
<stop stop-color="#B89800"/>
<stop offset="1" stop-color="#926600"/>
</radialGradient>
<linearGradient id="paint58_linear_68_1511" x1="827.9" y1="39.7" x2="827.9" y2="6.00001" gradientUnits="userSpaceOnUse">
<stop stop-color="#BE6888"/>
<stop offset="1" stop-color="#8E81F4"/>
</linearGradient>
<linearGradient id="paint59_linear_68_1511" x1="863.5" y1="65.1" x2="863.5" y2="22.5" gradientUnits="userSpaceOnUse">
<stop stop-color="#7959A6"/>
<stop offset="1" stop-color="#A7A2E7"/>
</linearGradient>
<linearGradient id="paint60_linear_68_1511" x1="792.8" y1="26.9" x2="784.4" y2="26.9" gradientUnits="userSpaceOnUse">
<stop stop-color="#C76834"/>
<stop offset="1" stop-color="#C96152"/>
</linearGradient>
<linearGradient id="paint61_linear_68_1511" x1="829.4" y1="35.4" x2="824.8" y2="35.4" gradientUnits="userSpaceOnUse">
<stop stop-color="#C76834"/>
<stop offset="1" stop-color="#C96152"/>
</linearGradient>
<linearGradient id="paint62_linear_68_1511" x1="862.9" y1="65.1" x2="862.9" y2="40" gradientUnits="userSpaceOnUse">
<stop stop-color="#BE6888"/>
<stop offset="1" stop-color="#8E81F4"/>
</linearGradient>
<linearGradient id="paint63_linear_68_1511" x1="781.9" y1="57.3" x2="781.9" y2="22.8" gradientUnits="userSpaceOnUse">
<stop stop-color="#DBE5FF"/>
<stop offset="1" stop-color="white"/>
</linearGradient>
<linearGradient id="paint64_linear_68_1511" x1="778.8" y1="52.5" x2="778.8" y2="25.1" gradientUnits="userSpaceOnUse">
<stop stop-color="#BE6888"/>
<stop offset="1" stop-color="#8E81F4"/>
</linearGradient>
<linearGradient id="paint65_linear_68_1511" x1="770.2" y1="41.5" x2="770.2" y2="32.9" gradientUnits="userSpaceOnUse">
<stop stop-color="#BDB3E7"/>
<stop offset="1" stop-color="#AAAAEE"/>
</linearGradient>
<linearGradient id="paint66_linear_68_1511" x1="795.9" y1="45.7" x2="795.9" y2="28.9" gradientUnits="userSpaceOnUse">
<stop stop-color="#BE6888"/>
<stop offset="1" stop-color="#8E81F4"/>
</linearGradient>
<linearGradient id="paint67_linear_68_1511" x1="829.4" y1="54.2" x2="829.4" y2="37.4" gradientUnits="userSpaceOnUse">
<stop stop-color="#BE6888"/>
<stop offset="1" stop-color="#8E81F4"/>
</linearGradient>
<linearGradient id="paint68_linear_68_1511" x1="857.3" y1="143.9" x2="857.3" y2="41.6" gradientUnits="userSpaceOnUse">
<stop stop-color="#A94842"/>
<stop offset="1" stop-color="#C4786D"/>
</linearGradient>
<linearGradient id="paint69_linear_68_1511" x1="818.9" y1="104" x2="818.9" y2="41.6" gradientUnits="userSpaceOnUse">
<stop stop-color="#9A5459"/>
<stop offset="1" stop-color="#C2819F"/>
</linearGradient>
<linearGradient id="paint70_linear_68_1511" x1="857.6" y1="107.3" x2="857.6" y2="43.1" gradientUnits="userSpaceOnUse">
<stop stop-color="#A94842"/>
<stop offset="1" stop-color="#C4786D"/>
</linearGradient>
<linearGradient id="paint71_linear_68_1511" x1="847.4" y1="94.8" x2="847.4" y2="64.3" gradientUnits="userSpaceOnUse">
<stop stop-color="#FF8617"/>
<stop offset="1" stop-color="#FF9D2C"/>
</linearGradient>
<linearGradient id="paint72_linear_68_1511" x1="819.6" y1="93.9" x2="819.6" y2="64.3" gradientUnits="userSpaceOnUse">
<stop stop-color="#9A5459"/>
<stop offset="1" stop-color="#C2819F"/>
</linearGradient>
<linearGradient id="paint73_linear_68_1511" x1="844.4" y1="67.9" x2="818.3" y2="67.9" gradientUnits="userSpaceOnUse">
<stop stop-color="#FFE1C5"/>
<stop offset="1" stop-color="#A7A9CB"/>
</linearGradient>
<linearGradient id="paint74_linear_68_1511" x1="851.1" y1="116.7" x2="851.1" y2="106" gradientUnits="userSpaceOnUse">
<stop stop-color="#BE6888"/>
<stop offset="1" stop-color="#8E81F4"/>
</linearGradient>
<linearGradient id="paint75_linear_68_1511" x1="799.2" y1="142.6" x2="799.2" y2="80.6" gradientUnits="userSpaceOnUse">
<stop stop-color="#BE6888"/>
<stop offset="1" stop-color="#C26157"/>
</linearGradient>
<linearGradient id="paint76_linear_68_1511" x1="846.2" y1="107.9" x2="760.3" y2="107.9" gradientUnits="userSpaceOnUse">
<stop stop-color="#3E1B40"/>
<stop offset="1" stop-color="#523E63"/>
</linearGradient>
<linearGradient id="paint77_linear_68_1511" x1="831.1" y1="145.1" x2="831.1" y2="99.1" gradientUnits="userSpaceOnUse">
<stop stop-color="#3E1B40"/>
<stop offset="1" stop-color="#523E63"/>
</linearGradient>
<linearGradient id="paint78_linear_68_1511" x1="833.8" y1="131.6" x2="833.8" y2="109.2" gradientUnits="userSpaceOnUse">
<stop stop-color="#3E1B40"/>
<stop offset="1" stop-color="#523E63"/>
</linearGradient>
<linearGradient id="paint79_linear_68_1511" x1="821.2" y1="130.1" x2="821.2" y2="109.2" gradientUnits="userSpaceOnUse">
<stop stop-color="#BE6888"/>
<stop offset="1" stop-color="#8E81F4"/>
</linearGradient>
<linearGradient id="paint80_linear_68_1511" x1="820.4" y1="124.5" x2="820.4" y2="114.5" gradientUnits="userSpaceOnUse">
<stop stop-color="#3E1B40"/>
<stop offset="1" stop-color="#523E63"/>
</linearGradient>
<linearGradient id="paint81_linear_68_1511" x1="796.8" y1="139.1" x2="796.8" y2="64.8" gradientUnits="userSpaceOnUse">
<stop stop-color="#6F1327"/>
<stop offset="1" stop-color="#863424"/>
</linearGradient>
<linearGradient id="paint82_linear_68_1511" x1="781.9" y1="75.3" x2="781.9" y2="68.5" gradientUnits="userSpaceOnUse">
<stop stop-color="#C76834"/>
<stop offset="1" stop-color="#C96152"/>
</linearGradient>
<linearGradient id="paint83_linear_68_1511" x1="796.8" y1="139.1" x2="796.8" y2="69.2" gradientUnits="userSpaceOnUse">
<stop stop-color="#BE6888"/>
<stop offset="1" stop-color="#C26157"/>
</linearGradient>
<linearGradient id="paint84_linear_68_1511" x1="778.5" y1="89.8" x2="778.5" y2="72.8" gradientUnits="userSpaceOnUse">
<stop stop-color="#BE6888"/>
<stop offset="1" stop-color="#C26157"/>
</linearGradient>
<linearGradient id="paint85_linear_68_1511" x1="778.5" y1="69.7" x2="778.5" y2="66.8" gradientUnits="userSpaceOnUse">
<stop stop-color="#BE6888"/>
<stop offset="1" stop-color="#C26157"/>
</linearGradient>
<linearGradient id="paint86_linear_68_1511" x1="777.3" y1="76.4" x2="777.3" y2="71.9" gradientUnits="userSpaceOnUse">
<stop stop-color="#BE6888"/>
<stop offset="1" stop-color="#C26157"/>
</linearGradient>
<linearGradient id="paint87_linear_68_1511" x1="857.8" y1="144.2" x2="857.8" y2="41.6" gradientUnits="userSpaceOnUse">
<stop stop-color="#BE6888"/>
<stop offset="1" stop-color="#C26157"/>
</linearGradient>
<linearGradient id="paint88_linear_68_1511" x1="847.4" y1="67.9" x2="814" y2="67.9" gradientUnits="userSpaceOnUse">
<stop stop-color="#BE6888"/>
<stop offset="1" stop-color="#C26157"/>
</linearGradient>
<linearGradient id="paint89_linear_68_1511" x1="863.5" y1="274.3" x2="863.5" y2="0.6" gradientUnits="userSpaceOnUse">
<stop offset="0.3"/>
<stop offset="1" stop-color="#595CD8"/>
</linearGradient>
</defs>
</svg>
