<svg width="643" height="144" viewBox="0 0 643 144" fill="none" xmlns="http://www.w3.org/2000/svg">
<g clip-path="url(#clip0_68_816)">
<path d="M159.2 144C144.533 109.733 122.133 109.367 92 142.9L159.2 144Z" fill="url(#paint0_linear_68_816)"/>
<path d="M463.5 138.4C471.233 86.3333 485.433 60.0667 506.1 59.6C526.7 59.0667 546.8 86.8333 566.4 142.9L463.5 138.4Z" fill="url(#paint1_linear_68_816)"/>
<path d="M228 139.4C225.933 113.667 234.8 108.7 254.6 124.5C279.333 44.2333 309.7 2.96666 345.7 0.699996C381.633 -1.63334 404.733 22.2 415 72.2C421.667 52.7333 430.567 44.8 441.7 48.4C456.233 53.2 467.333 85.0667 475 144L228 139.4Z" fill="url(#paint2_linear_68_816)"/>
<path d="M71.9 142.6C97.7667 137.867 114.633 137.767 122.5 142.3C171.033 128.033 202.433 127.1 216.7 139.5C223.233 131.767 228.767 132.167 233.3 140.7C251.567 104.9 270.633 88.4 290.5 91.2C310.367 94.0666 323.5 108.133 329.9 133.4C333.567 131 336.233 132.8 337.9 138.8C365.233 81.8667 396.467 55.5667 431.6 59.9C466.733 64.3 493.633 91.7667 512.3 142.3C519.833 126.833 530 119.5 542.8 120.3C555.6 121.167 571.533 128.733 590.6 143L639.3 144H52L71.9 142.6Z" fill="url(#paint3_linear_68_816)"/>
<path d="M52 144H642.5C470.167 140.533 273.333 140.533 52 144Z" fill="#A8B4EC"/>
<path d="M510.6 132.4C465.667 130.933 415.367 123.067 359.7 108.8C370.5 91.1333 381.767 78.3 393.5 70.3C437.5 40.3 476.533 61 510.6 132.4Z" fill="url(#paint4_linear_68_816)"/>
<path d="M341.8 137.2C350.266 128.133 360.566 123.733 372.7 124C384.833 124.2 399.6 129.1 417 138.7L341.8 137.2Z" fill="url(#paint5_linear_68_816)"/>
<path d="M448.1 140.2C465.966 131.533 479.933 131.033 490 138.7L448.1 140.2Z" fill="url(#paint6_linear_68_816)"/>
<path d="M235.3 137.1C250.166 105.633 267.4 90.2666 287 91C306.666 91.8 320.967 105.933 329.9 133.4C300.767 138.467 269.233 139.7 235.3 137.1Z" fill="url(#paint7_linear_68_816)"/>
<path d="M322 138.2C327.867 134.133 331.833 132.367 333.9 132.9C335.967 133.433 337.3 135.4 337.9 138.8C331.633 139.467 326.333 139.267 322 138.2Z" fill="url(#paint8_linear_68_816)"/>
<path d="M233.3 140.7C229.034 132.167 223.5 131.767 216.7 139.5L233.3 140.7Z" fill="url(#paint9_linear_68_816)"/>
<path d="M123.899 141.7C147.366 134.167 166.999 130.4 182.799 130.4C198.666 130.4 210.666 134.167 218.799 141.7H123.899Z" fill="url(#paint10_linear_68_816)"/>
<path d="M345.7 0.699995C372.1 -3.56667 393.033 13.3667 408.5 51.5C386.033 68.5 363.8 79.5333 341.8 84.6C319.8 89.6667 296.3 88.6667 271.3 81.6C273 77.7 306 7.09999 345.7 0.699995Z" fill="url(#paint11_linear_68_816)"/>
<path d="M426.5 52.9C438.1 60.1666 447.533 63.7333 454.8 63.6C447.733 45.8 438.3 42.2333 426.5 52.9Z" fill="url(#paint12_linear_68_816)"/>
<path d="M482 79C499.667 104.333 524.467 117.4 556.4 118.2C529.4 51.3333 504.6 38.2667 482 79Z" fill="url(#paint13_linear_68_816)"/>
<path d="M588.8 141.7C551.067 109.367 526.867 107.467 516.2 136C553.334 139.8 577.534 141.7 588.8 141.7Z" fill="url(#paint14_linear_68_816)"/>
<path d="M101.5 137.7C107.1 127.033 115.5 121.433 126.7 120.9C137.833 120.367 145.867 123.867 150.8 131.4C131.133 136.2 114.7 138.3 101.5 137.7Z" fill="url(#paint15_linear_68_816)"/>
<path d="M71.0996 142.6C87.3663 139.067 105.533 138.2 125.6 140C122.6 142.4 104.433 143.267 71.0996 142.6Z" fill="url(#paint16_linear_68_816)"/>
<path d="M326.6 118.2C340.466 110.667 354.233 111.567 367.9 120.9C362.3 124.233 354.833 126.067 345.5 126.4C336.166 126.8 329.866 124.067 326.6 118.2Z" fill="url(#paint17_linear_68_816)"/>
<path d="M385.1 124C417.966 125.667 444.1 128.6 463.5 132.8C458.5 136 448.033 137.067 432.1 136C416.1 134.867 400.433 130.867 385.1 124Z" fill="url(#paint18_linear_68_816)"/>
<path d="M51.9998 144H0.799805C25.7998 136.067 42.8665 136.067 51.9998 144Z" fill="url(#paint19_linear_68_816)"/>
<path d="M558 88L525 87.1C535.4 64.0333 546.4 64.3333 558 88Z" fill="url(#paint20_linear_68_816)"/>
<path d="M525 87.1C533.2 83.1 544.2 83.4 558 88L525 87.1Z" fill="#A8B4EC"/>
<path d="M578.7 42.8L524.3 41.6C544.633 27.1333 562.766 27.5333 578.7 42.8Z" fill="url(#paint21_linear_68_816)"/>
<path d="M524.3 41.6C538.3 39.2 556.433 39.6 578.7 42.8L524.3 41.6Z" fill="#A8B4EC"/>
<path d="M617.6 144C629.066 137.333 637.366 137.333 642.5 144H617.6Z" fill="url(#paint22_linear_68_816)"/>
</g>
<defs>
<linearGradient id="paint0_linear_68_816" x1="90" y1="144" x2="90" y2="132.3" gradientUnits="userSpaceOnUse">
<stop stop-color="#C6CCF3"/>
<stop offset="1" stop-color="white"/>
</linearGradient>
<linearGradient id="paint1_linear_68_816" x1="461.5" y1="142.9" x2="461.5" y2="60.3" gradientUnits="userSpaceOnUse">
<stop stop-color="#C6CCF3"/>
<stop offset="1" stop-color="white"/>
</linearGradient>
<linearGradient id="paint2_linear_68_816" x1="225.8" y1="144" x2="225.8" y2="3.8" gradientUnits="userSpaceOnUse">
<stop stop-color="#C6CCF3"/>
<stop offset="1" stop-color="white"/>
</linearGradient>
<linearGradient id="paint3_linear_68_816" x1="50" y1="144" x2="50" y2="65.2" gradientUnits="userSpaceOnUse">
<stop stop-color="#C6CCF3"/>
<stop offset="1" stop-color="white"/>
</linearGradient>
<linearGradient id="paint4_linear_68_816" x1="359.2" y1="144.6" x2="347.1" y2="22.9" gradientUnits="userSpaceOnUse">
<stop stop-color="#DBE1FF"/>
<stop offset="1" stop-color="white"/>
</linearGradient>
<linearGradient id="paint5_linear_68_816" x1="341" y1="151.4" x2="324.3" y2="-17.2" gradientUnits="userSpaceOnUse">
<stop stop-color="#DBE1FF"/>
<stop offset="1" stop-color="white"/>
</linearGradient>
<linearGradient id="paint6_linear_68_816" x1="442.2" y1="140.8" x2="433.1" y2="49.3" gradientUnits="userSpaceOnUse">
<stop stop-color="#DBE1FF"/>
<stop offset="1" stop-color="white"/>
</linearGradient>
<linearGradient id="paint7_linear_68_816" x1="235.2" y1="158" x2="219.2" y2="-2.10004" gradientUnits="userSpaceOnUse">
<stop stop-color="#DBE1FF"/>
<stop offset="1" stop-color="white"/>
</linearGradient>
<linearGradient id="paint8_linear_68_816" x1="320" y1="150.7" x2="305.8" y2="7.69986" gradientUnits="userSpaceOnUse">
<stop stop-color="#DBE1FF"/>
<stop offset="1" stop-color="white"/>
</linearGradient>
<linearGradient id="paint9_linear_68_816" x1="213" y1="152.9" x2="204" y2="62.5" gradientUnits="userSpaceOnUse">
<stop stop-color="#DBE1FF"/>
<stop offset="1" stop-color="white"/>
</linearGradient>
<linearGradient id="paint10_linear_68_816" x1="124.599" y1="168.8" x2="110.899" y2="30.6" gradientUnits="userSpaceOnUse">
<stop stop-color="#DBE1FF"/>
<stop offset="1" stop-color="white"/>
</linearGradient>
<linearGradient id="paint11_linear_68_816" x1="276" y1="146.8" x2="260.6" y2="-8" gradientUnits="userSpaceOnUse">
<stop stop-color="#DBE1FF"/>
<stop offset="1" stop-color="white"/>
</linearGradient>
<linearGradient id="paint12_linear_68_816" x1="430.2" y1="112.3" x2="419.5" y2="5.39998" gradientUnits="userSpaceOnUse">
<stop stop-color="#DBE1FF"/>
<stop offset="1" stop-color="white"/>
</linearGradient>
<linearGradient id="paint13_linear_68_816" x1="482.5" y1="130.1" x2="471.9" y2="22.7" gradientUnits="userSpaceOnUse">
<stop stop-color="#DBE1FF"/>
<stop offset="1" stop-color="white"/>
</linearGradient>
<linearGradient id="paint14_linear_68_816" x1="510" y1="137.9" x2="500.9" y2="46.1" gradientUnits="userSpaceOnUse">
<stop stop-color="#DBE1FF"/>
<stop offset="1" stop-color="white"/>
</linearGradient>
<linearGradient id="paint15_linear_68_816" x1="102.5" y1="171.3" x2="86.9" y2="13.5" gradientUnits="userSpaceOnUse">
<stop stop-color="#DBE1FF"/>
<stop offset="1" stop-color="white"/>
</linearGradient>
<linearGradient id="paint16_linear_68_816" x1="69.1996" y1="163.6" x2="58.9996" y2="60.5999" gradientUnits="userSpaceOnUse">
<stop stop-color="#DBE1FF"/>
<stop offset="1" stop-color="white"/>
</linearGradient>
<linearGradient id="paint17_linear_68_816" x1="325.2" y1="143.7" x2="313.8" y2="29.4" gradientUnits="userSpaceOnUse">
<stop stop-color="#DBE1FF"/>
<stop offset="1" stop-color="white"/>
</linearGradient>
<linearGradient id="paint18_linear_68_816" x1="384.6" y1="145.2" x2="369" y2="-12" gradientUnits="userSpaceOnUse">
<stop stop-color="#DBE1FF"/>
<stop offset="1" stop-color="white"/>
</linearGradient>
<linearGradient id="paint19_linear_68_816" x1="-1.2002" y1="144" x2="-1.2002" y2="141.4" gradientUnits="userSpaceOnUse">
<stop stop-color="#DBE1FF"/>
<stop offset="1" stop-color="white"/>
</linearGradient>
<linearGradient id="paint20_linear_68_816" x1="523" y1="89.6" x2="522.1" y2="80.8" gradientUnits="userSpaceOnUse">
<stop stop-color="#DBE1FF"/>
<stop offset="1" stop-color="white"/>
</linearGradient>
<linearGradient id="paint21_linear_68_816" x1="522.3" y1="43.5" x2="522.1" y2="37.8" gradientUnits="userSpaceOnUse">
<stop stop-color="#DBE1FF"/>
<stop offset="1" stop-color="white"/>
</linearGradient>
<linearGradient id="paint22_linear_68_816" x1="614.7" y1="143.9" x2="613.1" y2="127.1" gradientUnits="userSpaceOnUse">
<stop stop-color="#DBE1FF"/>
<stop offset="1" stop-color="white"/>
</linearGradient>
<clipPath id="clip0_68_816">
<rect width="643" height="144" fill="white"/>
</clipPath>
</defs>
</svg>
