<svg width="537" height="298" viewBox="0 0 537 298" fill="none" xmlns="http://www.w3.org/2000/svg">
<g clip-path="url(#clip0_68_745)">
<path d="M0.899902 298L204.8 113.5L209.6 110.7L296.1 0.799988H300.2L306 4.89999L327.9 38.3L389.5 120.3L437.6 145.7L441.4 146.5L536.6 298H0.899902Z" fill="url(#paint0_linear_68_745)"/>
<g style="mix-blend-mode:soft-light" opacity="0.9">
<path fill-rule="evenodd" clip-rule="evenodd" d="M21.6999 279.1L154.7 232.4L326.7 143.2L354.2 184.9L326.2 138.8V138.7L172.6 217.7L49.5999 253.9L65.9999 239L100.6 226.7L184.8 181.2L190.4 165.5V165.4L198.6 142.1L217.2 131.9L199.9 138.3L209.6 110.7L296.1 0.799988H300.2L306 4.79999L297.7 4.39999L272.7 46.2L300.2 9.79999L306 4.79999L315.6 20.4L348.9 74.4L312.2 23.3L307.4 25.5L307.2 25.6L307.7 26.1L384.4 126.3L389.5 120.3L441.4 146.4L536.6 298L441.4 152.5L438 154.8L483.4 251V234.7L515.3 298H492.7L423.6 205.9L330.6 217.7L307.7 181.2L327.9 221.4L419.8 231.7L459.6 298H447.1L436.2 280.5L441.4 298H374.7L354.6 274.5L368.6 298H272.7L275.9 293.7L279.4 288.8L209.5 232.4L217.2 242.7L275.9 293.7L222.6 253.9L95.7999 298H0.899902L21.6999 279.1ZM109.5 199.6L192.4 134.7L189.1 154.8L158.8 175.5L188.2 160.5L184.8 181.2L73.2999 232.4L109.5 199.6ZM204.7 113.4L198.7 123.8L109.5 199.6L204.7 113.4ZM146.3 209L169.7 202.2L177.3 195.3L146.3 209ZM226.2 178.6L323.7 114.3L332.6 123.7L323.3 110.7L259.3 149L226.2 168.8V178.6ZM296.6 117.6L283.4 120.3L270.1 136.2L258.7 141L237.9 158.8L270.1 136.2L296.6 117.6ZM268.7 75.2L281.3 66.7L311.8 35.4L268.7 75.2ZM316.7 46.2L306.4 54.5L234 112.5L232.8 113.4L310.4 60.1L317 62.7L340.9 96.4L316.7 46.2ZM428.1 174.3L462.8 217.7L435.3 165.4L416.2 166.7L428.1 174.3ZM336.6 209.1L351.3 206.4L339.5 204.9L327.7 195L336.6 209.1ZM446.9 286.2L420.4 239.6L410 242.7L446.9 286.2ZM225.9 262.9L229.6 265.7L272.6 297.9H109.4L225.9 262.9ZM488.9 297.9H483.2L434.3 230.1L488.9 297.9ZM45.7999 257L154.5 226.6L36.5999 265.3L45.7999 257Z" fill="white"/>
</g>
<g style="mix-blend-mode:soft-light" opacity="0.9">
<path fill-rule="evenodd" clip-rule="evenodd" d="M229.8 265.8L249.4 298H0.899902L21.6999 279.1L36.7999 265.4L45.9999 257.1L49.5999 253.9L65.9999 239L73.3999 232.4L109.6 199.6L204.8 113.5L209.6 110.7L296.1 0.799988L307.2 25.6L311.8 35.4L316.8 46.2L306.5 54.5L310.5 60.2L319.3 72.6L323.3 110.8L323.7 114.4L326.2 138.7V138.8L326.7 143.2L237.9 199.6L244.5 206.5L209.5 232.4L222.6 253.9L229.8 265.8ZM119.7 204L140.5 198.1L172.6 181.3L119.7 204Z" fill="white"/>
</g>
<g style="mix-blend-mode:soft-light" opacity="0.9">
<path d="M441.4 146.4L438 154.8L435.5 165.4L416.4 166.7L428.3 174.4L419.8 231.7L345.1 257.1L354.6 274.5L359.1 298H272.7L354.2 184.9L367.5 146.4L389.5 120.3L441.4 146.4Z" fill="white"/>
</g>
<path d="M49.5 253.9H49.6L46 257.1L49.5 253.9Z" fill="white"/>
<g style="mix-blend-mode:soft-light" opacity="0.9">
<path fill-rule="evenodd" clip-rule="evenodd" d="M244.5 175.5L181.7 204L190.4 165.5V165.4L198.6 142.1L217.2 131.9L199.9 138.3L209.6 110.7L296.1 0.799988L307.4 25.5L307.7 26.2L316.8 46.2L234.1 112.5L310.5 60.2L319.3 72.6L304.7 83.8L319.9 77.9L322.7 104.9L323.3 110.8L256.8 150.4L259.3 149.1L323.7 114.4L326.2 138.8L172.6 217.7L244.5 175.5ZM270.1 136.2L296.7 117.6L283.4 120.3L270.1 136.2L258.8 141L237.9 158.8L270.1 136.2Z" fill="white"/>
</g>
<g style="mix-blend-mode:soft-light" opacity="0.9">
<path d="M276.5 232.4L282.7 257.1L249.4 213.4L276.5 232.4Z" fill="white"/>
</g>
<g style="mix-blend-mode:soft-light" opacity="0.9">
<path d="M423.6 205.9L357.1 206.5L339.8 205L354.2 184.9L428.3 174.4L423.6 205.9Z" fill="white"/>
</g>
<g style="mix-blend-mode:soft-light" opacity="0.9">
<path d="M416.4 166.7L364.6 154.8L367.5 146.5L389.5 120.3L441.4 146.4L435.5 165.4L416.4 166.7Z" fill="white"/>
</g>
<path opacity="0.8" d="M291.8 176.1L268.7 184.9L307.5 160.5L291.8 176.1Z" fill="white"/>
<path opacity="0.8" d="M119.7 190.4L204.8 113.5L198.8 123.8L119.7 190.4Z" fill="white"/>
<g style="mix-blend-mode:soft-light" opacity="0.9">
<path d="M326.7 143.2L237.9 199.6L157.2 231.1L326.7 143.2Z" fill="white"/>
</g>
</g>
<defs>
<linearGradient id="paint0_linear_68_745" x1="538.6" y1="298" x2="538.6" y2="0.799988" gradientUnits="userSpaceOnUse">
<stop stop-color="#FFCA91"/>
<stop offset="0.5" stop-color="#C48154"/>
<stop offset="1" stop-color="#976349"/>
</linearGradient>
<clipPath id="clip0_68_745">
<rect width="537" height="298" fill="white"/>
</clipPath>
</defs>
</svg>
