<svg width="196" height="167" viewBox="0 0 196 167" fill="none" xmlns="http://www.w3.org/2000/svg">
<path d="M138 83.2C138 101.7 123 116.6 104.6 116.6C86.1997 116.6 71.1997 101.7 71.1997 83.2C71.1997 64.8 86.1997 49.8 104.6 49.8C123 49.8 138 64.8 138 83.2Z" fill="white"/>
<path style="mix-blend-mode:screen" opacity="0.5" d="M187.5 83.2C187.5 129 150.4 166.1 104.6 166.1C58.7997 166.1 21.6997 129 21.6997 83.2C21.6997 37.5 58.7997 0.399994 104.6 0.399994C150.4 0.399994 187.5 37.5 187.5 83.2Z" fill="url(#paint0_radial_68_775)"/>
<path style="mix-blend-mode:screen" opacity="0.5" d="M165.8 83.2C165.8 117 138.4 144.4 104.6 144.4C70.7999 144.4 43.3999 117 43.3999 83.2C43.3999 49.4 70.7999 22.1 104.6 22.1C138.4 22.1 165.8 49.4 165.8 83.2Z" fill="url(#paint1_radial_68_775)"/>
<path style="mix-blend-mode:screen" opacity="0.9" d="M154.5 83.2C154.5 110.8 132.2 133.2 104.6 133.2C76.9997 133.2 54.6997 110.8 54.6997 83.2C54.6997 55.6 76.9997 33.3 104.6 33.3C132.2 33.3 154.5 55.6 154.5 83.2Z" fill="url(#paint2_radial_68_775)"/>
<g opacity="0.5">
<path style="mix-blend-mode:screen" opacity="0.5" d="M148.2 83.1C157.5 108 145 135.7 120.1 145.1C95.2001 154.5 67.5001 141.9 58.1001 117C48.7001 92.1 61.3001 64.4 86.2001 55C111 45.6 138.8 58.2 148.2 83.1Z" fill="url(#paint3_radial_68_775)"/>
<g style="mix-blend-mode:screen" opacity="0.5">
<path d="M74.7998 71.6C79.0998 83.1 73.2998 96 61.7998 100.3C50.2998 104.6 37.3998 98.8 33.0998 87.3C28.6998 75.8 34.5998 62.9 46.0998 58.6C57.5998 54.3 70.3998 60.1 74.7998 71.6Z" fill="#F15407"/>
</g>
<g style="mix-blend-mode:screen" opacity="0.5">
<path d="M194.7 125.5C197.1 131.8 193.9 138.9 187.5 141.3C181.2 143.6 174.2 140.4 171.8 134.1C169.4 127.8 172.6 120.8 178.9 118.4C185.2 116 192.3 119.2 194.7 125.5Z" fill="#F18907"/>
</g>
<g style="mix-blend-mode:screen" opacity="0.5">
<path d="M17.1999 58.8C18.8999 63.3 16.6999 68.3 12.1999 70C7.69993 71.6 2.69992 69.4 1.09992 64.9C-0.600077 60.5 1.59992 55.5 6.09992 53.8C10.5999 52.1 15.5999 54.4 17.1999 58.8Z" fill="#F18907"/>
</g>
<g style="mix-blend-mode:screen" opacity="0.3">
<path d="M42.8998 59.8L40.1998 76.2L24.5998 82L11.7998 71.5L14.4998 55.1L29.9998 49.3L42.8998 59.8Z" fill="#F15407"/>
</g>
<g style="mix-blend-mode:screen" opacity="0.3">
<path d="M186.4 107.3L183.7 123.7L168.2 129.6L155.3 119L158 102.7L173.6 96.8L186.4 107.3Z" fill="#F15407"/>
</g>
</g>
<defs>
<radialGradient id="paint0_radial_68_775" cx="0" cy="0" r="1" gradientUnits="userSpaceOnUse" gradientTransform="translate(104.6 83.2) scale(82.9)">
<stop stop-color="#6BB6F6"/>
<stop offset="1"/>
</radialGradient>
<radialGradient id="paint1_radial_68_775" cx="0" cy="0" r="1" gradientUnits="userSpaceOnUse" gradientTransform="translate(104.6 83.2) scale(61.2)">
<stop stop-color="#6BB6F6"/>
<stop offset="1"/>
</radialGradient>
<radialGradient id="paint2_radial_68_775" cx="0" cy="0" r="1" gradientUnits="userSpaceOnUse" gradientTransform="translate(104.6 83.2) scale(49.9)">
<stop stop-color="#6BB6F6"/>
<stop offset="1"/>
</radialGradient>
<radialGradient id="paint3_radial_68_775" cx="0" cy="0" r="1" gradientUnits="userSpaceOnUse" gradientTransform="translate(103.1 100) scale(42.6)">
<stop offset="0.9"/>
<stop offset="1" stop-color="#FFB400"/>
</radialGradient>
</defs>
</svg>
